<?xml version="1.0" encoding="UTF-8" standalone="no"?>
<!-- Created with Inkscape (http://www.inkscape.org/) -->

<svg
   width="12.719666mm"
   height="12.71965mm"
   viewBox="0 0 12.719666 12.71965"
   version="1.1"
   id="svg395"
   xmlns:inkscape="http://www.inkscape.org/namespaces/inkscape"
   xmlns:sodipodi="http://sodipodi.sourceforge.net/DTD/sodipodi-0.dtd"
   xmlns="http://www.w3.org/2000/svg"
   xmlns:svg="http://www.w3.org/2000/svg">
  <sodipodi:namedview
     id="namedview397"
     pagecolor="#505050"
     bordercolor="#eeeeee"
     borderopacity="1"
     inkscape:showpageshadow="0"
     inkscape:pageopacity="0"
     inkscape:pagecheckerboard="0"
     inkscape:deskcolor="#505050"
     inkscape:document-units="mm"
     showgrid="false"
     inkscape:zoom="3.9710672"
     inkscape:cx="450.88635"
     inkscape:cy="372.19214"
     inkscape:window-width="1920"
     inkscape:window-height="967"
     inkscape:window-x="0"
     inkscape:window-y="0"
     inkscape:window-maximized="1"
     inkscape:current-layer="layer1" />
  <defs
     id="defs392" />
  <g
     inkscape:label="Layer 1"
     inkscape:groupmode="layer"
     id="layer1"
     transform="translate(-136.805,-82.661634)">
    <g
       id="g3110">
      <circle
         style="fill:#1e3a8a;fill-opacity:1;stroke:none;stroke-width:1.13453;stroke-linecap:round"
         id="path2809"
         cx="143.16484"
         cy="89.021461"
         r="6.359828" />
      <path
         d="m 140.97817,86.709839 c -0.41746,0 -0.79403,0.103228 -1.12958,0.310012 -0.33164,0.202888 -0.59282,0.485716 -0.78401,0.84857 -0.18727,0.358952 -0.28101,0.76074 -0.28101,1.205531 0,0.436987 0.0897,0.827319 0.26928,1.170664 0.18337,0.339443 0.43507,0.606531 0.75501,0.801615 0.32383,0.191181 0.69057,0.286875 1.10024,0.286875 0.30043,0 0.60095,-0.04888 0.90138,-0.146368 0.30433,-0.1014 0.53636,-0.23025 0.69633,-0.386317 v -1.539013 l 0.52095,-0.111151 v -0.134639 h -1.66227 v 0.134639 l 0.52681,0.111151 v 1.141324 c 0,0.09362 -0.004,0.159828 -0.0117,0.198845 -0.004,0.03903 -0.0157,0.07404 -0.0351,0.105289 -0.0703,0.11709 -0.17936,0.206858 -0.32762,0.26928 -0.14435,0.05848 -0.31413,0.08765 -0.5092,0.08765 -0.49551,0 -0.86617,-0.165831 -1.11198,-0.497455 -0.2419,-0.331649 -0.36284,-0.829142 -0.36284,-1.49242 0,-0.690595 0.12876,-1.213314 0.38632,-1.568365 0.2575,-0.355051 0.638,-0.532687 1.14131,-0.532687 0.21849,0 0.40563,0.03734 0.56168,0.111514 0.15997,0.07023 0.30451,0.187222 0.43327,0.351097 0.12876,0.163866 0.25524,0.38999 0.3801,0.678709 h 0.13463 v -1.346036 h -0.12876 l -0.31588,0.29862 h -0.0235 c -0.12876,-0.113148 -0.29065,-0.200984 -0.48573,-0.263407 -0.19509,-0.06242 -0.40779,-0.09355 -0.63798,-0.09355 z m 4.90568,0.05834 v 0.134639 l 0.52683,0.111151 v 4.014992 l -0.52683,0.111125 v 0.134633 h 1.66227 v -0.134633 l -0.52095,-0.111125 v -4.014992 l 0.52095,-0.111151 v -0.134639 z m -1.60047,1.591493 c -0.22696,0 -0.3984,0.1857 -0.3984,0.431878 0,0.265959 0.21363,0.448098 0.53684,0.723596 0.0548,0.04676 0.11722,0.09983 0.18193,0.156385 0.009,0.0075 0.0193,0.01141 0.0307,0.01141 0.0117,0 0.0226,-0.004 0.031,-0.01141 0.0647,-0.05659 0.12669,-0.109568 0.1816,-0.156385 0.32322,-0.275438 0.53683,-0.457637 0.53683,-0.723596 0,-0.246178 -0.17109,-0.431878 -0.39804,-0.431878 -0.0813,0 -0.15592,0.02579 -0.22164,0.07663 -0.063,0.0487 -0.10516,0.110917 -0.12981,0.156045 -0.0248,-0.04516 -0.0665,-0.107312 -0.12941,-0.156045 -0.0657,-0.05084 -0.1403,-0.07663 -0.22163,-0.07663 z"
         style="display:inline;fill:#ffffff;fill-opacity:1;fill-rule:evenodd;stroke:none;stroke-width:0.0365416;stroke-linecap:butt;stroke-linejoin:miter;stroke-miterlimit:22.9256;stroke-dasharray:none;stroke-opacity:1"
         id="path2927" />
    </g>
  </g>
</svg>
