<?xml version="1.0" encoding="UTF-8" standalone="no"?>
<!-- Created with Inkscape (http://www.inkscape.org/) -->

<svg
   width="1119.889"
   height="1119.889"
   viewBox="0 0 296.30397 296.30397"
   version="1.1"
   id="svg1"
   xml:space="preserve"
   xmlns="http://www.w3.org/2000/svg"
   xmlns:svg="http://www.w3.org/2000/svg"><defs
     id="defs1" /><g
     id="layer1"
     transform="translate(-693.99049,-503.66013)"><g
       id="g1"
       transform="translate(-481.35497,23.752726)"><circle
         style="fill:#212b33;fill-opacity:1;stroke:#212b33;stroke-width:1.43296;stroke-linecap:round;stroke-linejoin:round;paint-order:stroke fill markers"
         id="path1"
         cx="1323.4974"
         cy="628.05939"
         r="147.4355" /><path
         id="path1-1-56"
         style="fill:#ffffff;fill-opacity:1;stroke:none;stroke-width:0.383206;stroke-opacity:1"
         d="m 1258.0902,558.44481 v 5.5056 c 7.7504,-2.07671 14.2026,1.00651 14.2026,8.5608 v 55.42431 0.24775 55.42355 c 0,7.5543 -6.4522,10.63825 -14.2026,8.56154 v 5.5056 h 81.567 c 34.8982,0 48.121,-12.77676 49.1852,-27.27056 1.77,-24.10464 -34.7615,-27.02801 -33.4535,-5.8671 0.9285,15.02272 23.3653,13.13575 19.331,-0.69533 4.0638,7.71373 -2.7138,30.2539 -38.549,30.2539 h -24.0664 v -64.68864 c 17.0014,0 32.2597,14.36461 32.2597,27.85809 h 3.4249 v -29.08106 -0.24775 -29.08108 h -3.4249 c 0,13.49349 -15.2583,27.8581 -32.2597,27.8581 v -64.68862 h 24.0664 c 35.8352,0 42.6128,22.54018 38.549,30.25389 4.0343,-13.83108 -18.4025,-15.71804 -19.331,-0.69531 -1.308,21.1609 35.2235,18.23752 33.4535,-5.86711 -1.0642,-14.49382 -14.287,-27.27057 -49.1852,-27.27057 z" /></g></g></svg>
