<?xml version="1.0" encoding="UTF-8" standalone="no"?>
<!-- Created with Inkscape (http://www.inkscape.org/) -->

<svg
   version="1.1"
   id="svg148"
   width="158.89331"
   height="177.77267"
   viewBox="0 0 158.89331 177.77268"
   sodipodi:docname="logo-ig.svg"
   inkscape:version="1.2.2 (732a01da63, 2022-12-09, custom)"
   inkscape:export-filename="../598e64b4/ig.svg"
   inkscape:export-xdpi="96"
   inkscape:export-ydpi="96"
   xmlns:inkscape="http://www.inkscape.org/namespaces/inkscape"
   xmlns:sodipodi="http://sodipodi.sourceforge.net/DTD/sodipodi-0.dtd"
   xmlns:xlink="http://www.w3.org/1999/xlink"
   xmlns="http://www.w3.org/2000/svg"
   xmlns:svg="http://www.w3.org/2000/svg">
  <defs
     id="defs152">
    <linearGradient
       inkscape:collect="always"
       id="linearGradient1951">
      <stop
         style="stop-color:#ae8625;stop-opacity:1;"
         offset="0.05"
         id="stop1947" />
      <stop
         style="stop-color:#f7ef8a;stop-opacity:1;"
         offset="0.24544777"
         id="stop1955" />
      <stop
         style="stop-color:#d2ac47;stop-opacity:1;"
         offset="0.79974467"
         id="stop1957" />
      <stop
         style="stop-color:#edc967;stop-opacity:1;"
         offset="0.94990271"
         id="stop1949" />
    </linearGradient>
    <linearGradient
       inkscape:collect="always"
       xlink:href="#linearGradient1951"
       id="linearGradient1953"
       x1="223.78542"
       y1="40.287056"
       x2="342.95541"
       y2="40.287056"
       gradientUnits="userSpaceOnUse"
       gradientTransform="translate(-387.72112,36.955873)" />
  </defs>
  <sodipodi:namedview
     id="namedview150"
     pagecolor="#505050"
     bordercolor="#eeeeee"
     borderopacity="1"
     inkscape:showpageshadow="0"
     inkscape:pageopacity="0"
     inkscape:pagecheckerboard="0"
     inkscape:deskcolor="#505050"
     showgrid="false"
     inkscape:zoom="2.8284272"
     inkscape:cx="53.386561"
     inkscape:cy="115.2584"
     inkscape:window-width="1920"
     inkscape:window-height="967"
     inkscape:window-x="0"
     inkscape:window-y="0"
     inkscape:window-maximized="1"
     inkscape:current-layer="g156" />
  <g
     id="g156"
     inkscape:groupmode="layer"
     inkscape:label="Page 1"
     transform="matrix(1.3333333,0,0,-1.3333333,218.58094,191.87721)">
    <path
       id="path168-3-5"
       style="display:inline;fill:url(#linearGradient1953);fill-opacity:1;fill-rule:evenodd;stroke:none;stroke-width:0.155051;stroke-linecap:butt;stroke-linejoin:miter;stroke-miterlimit:22.9256;stroke-dasharray:none;stroke-opacity:1"
       d="m -104.09465,143.5756 c -0.01,-0.0224 -0.0197,-0.045 -0.0293,-0.0674 -0.0677,-0.13139 -0.13584,-0.26407 -0.20508,-0.3955 -0.40312,-0.82666 -0.77989,-1.59876 -0.75293,-2.45947 0.0181,-0.50467 0.53999,-1.03713 0.99902,-1.03858 l 2e-5,10e-4 c 0.46561,-10e-4 0.98466,0.53242 0.99316,1.03564 0.0284,0.76739 -0.32313,1.4888 -0.66357,2.18848 -0.11492,0.24612 -0.22932,0.49116 -0.3413,0.73536 z m 1.52197,-3.65332 c -0.10961,0.008 -0.22117,-0.0181 -0.3208,-0.0806 -0.4497,-0.2828 -0.81894,-0.72935 -1.11035,-1.33447 -0.0512,-0.1158 -0.1,-0.23113 -0.14942,-0.3457 -0.0339,0.0849 -0.0701,0.17027 -0.10398,0.25489 -0.30838,0.65751 -0.68933,1.12152 -1.16016,1.42382 -0.27267,0.1669 -0.61681,0.0713 -0.77929,-0.21972 -0.14997,-0.29706 -0.0678,-0.66494 0.20947,-0.82764 0.54682,-0.33922 0.95572,-1.2033 1.21727,-2.51074 0.0225,-0.13407 0.0464,-0.27001 0.0703,-0.4043 l -0.0293,-0.1831 c -0.0776,0.14392 -0.15507,0.28674 -0.2329,0.43066 -0.62636,1.07284 -1.40942,1.81269 -2.2998,2.03467 -0.29818,0.0748 -0.60492,-0.12441 -0.67237,-0.44238 -0.0668,-0.32406 0.12075,-0.63362 0.42334,-0.7002 0.7476,-0.17963 1.52422,-1.11581 2.11084,-2.51806 0.017,-0.0469 0.0317,-0.0928 0.0484,-0.14062 l -0.15527,0.19043 c -0.97264,1.13758 -2.2495,1.83419 -3.60352,1.76514 -1.16049,-0.0468 -2.19247,-0.64423 -2.99267,-1.57471 -0.8,-0.93016 -1.36571,-2.19287 -1.61866,-3.5669 l -0.0176,-0.0981 -0.019,0.13478 c -0.14677,0.9941 -0.0617,1.7256 0.25195,2.13281 0.18247,0.23573 0.14413,0.58007 -0.0835,0.77783 -0.23192,0.19624 -0.56176,0.16458 -0.73534,-0.0645 -0.43135,-0.5685 -0.58991,-1.37071 -0.49659,-2.41406 l -5e-5,-0.009 c -0.0441,0.0579 -0.0865,0.11642 -0.13037,0.17284 -0.59919,0.74463 -1.1965,1.18571 -1.82959,1.33155 -0.27586,0.0677 -0.52396,-0.12165 -0.55518,-0.41162 -0.0438,-0.29134 0.15624,-0.57942 0.4292,-0.64014 0.40117,-0.0933 0.82309,-0.43725 1.26856,-1.0166 -1.07726,0.61772 -2.21222,0.79252 -3.14063,0.39258 -0.73662,-0.31799 -1.24157,-0.96975 -1.50146,-1.86329 -0.2066,-0.73774 -0.23429,-1.59868 -0.11426,-2.49316 0.0496,-0.37204 0.12856,-0.74594 0.23144,-1.11914 l 0.21826,-0.95947 c 0,0 0.34421,-0.67205 0.41895,-0.74415 0.0622,-0.0934 0.28598,-0.44384 0.27832,-0.44384 0.33071,-0.51473 0.58431,-0.88871 0.78516,-1.27881 0.20229,-0.39009 0.35064,-0.79864 0.48925,-1.3667 0.0192,-0.0398 0.0399,-0.0794 0.06,-0.1187 -0.009,-0.0259 -0.0161,-0.0495 -0.0249,-0.0747 -0.005,-0.0723 0.002,-0.14638 0.0264,-0.21387 0.0927,-0.24044 0.35431,-0.37826 0.63281,-0.34717 0.0312,0.004 0.0786,0.0109 0.11717,0.0235 2.0651,0.61384 4.21857,1.18502 6.42921,1.5791 2.21118,0.39451 4.47665,0.60886 6.73242,0.60205 2.25601,-0.006 4.498023,-0.23101 6.666503,-0.62255 2.1683,-0.39173 4.25874,-0.94715 6.25049,-1.54395 0.30834,-0.0945 0.64631,0.0494 0.7456,0.32668 0.0236,0.0678 0.0346,0.13748 0.0249,0.20508 l -10e-6,0.0234 c 0.007,0.006 0.0143,0.0123 0.022,0.019 0.0367,0.0439 0.0635,0.0943 0.0703,0.15234 0.13582,0.56951 0.28254,0.97805 0.48194,1.3667 0.19942,0.39053 0.44852,0.76136 0.78076,1.27149 0,0 0.21773,0.3552 0.28271,0.44824 0.0754,0.0709 0.34798,1.12578 0.6504,1.71387 l -0.0132,-0.0147 c 0.0452,0.19067 0.0894,0.3816 0.13477,0.57422 0.21915,1.07975 0.21054,2.15027 -0.0395,3.03222 -0.26301,0.89644 -0.78399,1.54567 -1.5249,1.87354 -0.74738,0.31657 -1.64666,0.27557 -2.57373,-0.11865 -0.1386,-0.0523 -0.27143,-0.12003 -0.40284,-0.19336 -0.0651,-0.0395 -0.12966,-0.0777 -0.19483,-0.11571 0.0413,0.0564 0.0835,0.11496 0.12451,0.17138 0.40281,0.49627 0.79822,0.79966 1.16309,0.88477 0.27586,0.0608 0.46152,0.35321 0.4292,0.64014 -0.0366,0.28978 -0.28822,0.47912 -0.56689,0.41308 -0.62738,-0.14732 -1.22965,-0.58633 -1.81641,-1.33301 -0.0436,-0.0594 -0.0865,-0.11943 -0.13037,-0.17871 l -1e-5,0.0146 c 0.0764,1.04888 -0.0857,1.84431 -0.5083,2.4126 -0.18105,0.22906 -0.51077,0.26098 -0.74414,0.0645 -0.22616,-0.19787 -0.25703,-0.54147 -0.0762,-0.76612 0.32084,-0.4172 0.39507,-1.14947 0.26367,-2.14306 l -0.0234,-0.13477 c -0.0355,0.17356 -0.0716,0.3489 -0.10693,0.52442 -0.30831,1.27617 -0.88961,2.43304 -1.67578,3.28271 -0.78605,0.84819 -1.77413,1.38729 -2.87256,1.43408 -1.345793,0.0579 -2.623213,-0.63725 -3.588863,-1.76807 l -0.16114,-0.19922 c 0.0186,0.0496 0.0371,0.0983 0.0557,0.14795 0.57683,1.39498 1.34654,2.33279 2.09033,2.5122 0.298,0.0735 0.48263,0.38335 0.41748,0.7002 -0.0793,0.31921 -0.38026,0.51707 -0.67822,0.44238 -0.86535,-0.219 -1.63327,-0.93249 -2.23828,-1.96874 -0.0918,-0.16831 -0.185,-0.33685 -0.27832,-0.50537 l -0.022,0.19775 c 0.0172,0.0948 0.0342,0.18957 0.0513,0.28271 0.24159,1.37548 0.64629,2.27612 1.21436,2.625 0.26736,0.16964 0.36173,0.53789 0.20215,0.82764 -0.0991,0.181 -0.27435,0.2869 -0.45703,0.30029 z m 10.703623,-4.2583 -0.0322,-0.0352 c -0.0788,-0.075 -0.15797,-0.1506 -0.23877,-0.22558 -0.47618,-0.44651 -0.91676,-0.85929 -1.11474,-1.43701 -0.11283,-0.34386 0.0935,-0.83296 0.40573,-0.94631 0.0398,-0.01 0.0832,-0.0176 0.11719,-0.019 0.29674,-0.0271 0.67944,0.18182 0.79395,0.46875 0.20782,0.50583 0.16671,1.06304 0.11279,1.61572 -0.0141,0.19263 -0.0298,0.3865 -0.0439,0.57862 z m -24.556653,-0.0132 -2e-5,-0.0571 c -0.0114,-0.17406 -0.0212,-0.34743 -0.0322,-0.52148 -0.0505,-0.55096 -0.0903,-1.11671 0.12158,-1.61573 0.12155,-0.29688 0.4957,-0.50421 0.79834,-0.47167 0.0392,0.005 0.0733,0.008 0.11865,0.0249 0.3069,0.11323 0.51418,0.60094 0.3999,0.93603 -0.20659,0.58656 -0.64828,0.99925 -1.12353,1.43994 -0.0943,0.0892 -0.18806,0.17612 -0.28272,0.26514 z m 17.188483,-0.73535 c 1.55333,-0.0694 2.83401,-1.63768 3.3545,-3.6123 l 0.0147,-0.0791 c -0.0609,0.0309 -0.1236,0.0595 -0.18603,0.0908 -0.12441,0.0384 -0.25715,0.0603 -0.39697,0.0703 -1.19852,0.0919 -2.03248,-0.70083 -2.08887,-1.89258 l -2e-5,-0.0454 c 0.0395,-0.7008 0.44668,-1.10451 0.76611,-1.43555 0.18249,-0.1962 0.33798,-0.35209 0.3999,-0.53027 0.13167,-0.37489 0.1647,-0.7014 0.14063,-0.77783 -0.0764,-0.23602 0.065,-0.49342 0.31641,-0.56543 0.26015,-0.0791 0.53485,0.0316 0.61524,0.25633 0.0297,0.0832 0.049,0.17485 0.0601,0.27393 0.0339,0.40971 -0.12531,0.91624 -0.18604,1.08838 -0.12444,0.36477 -0.37445,0.63267 -0.60351,0.87744 -0.28403,0.30668 -0.46537,0.50702 -0.4834,0.83057 0.0482,0.63045 0.38824,0.95911 0.9917,0.91406 0.52008,-0.0371 0.89019,-0.71243 0.83056,-1.44874 -0.004,-0.0709 8.2e-4,-0.13092 0.0234,-0.18896 l 0.0498,-0.0776 c -0.005,-0.0721 -0.009,-0.14196 -0.0132,-0.21387 -0.13573,-1.55796 -0.65979,-2.83594 -1.4077,-3.68847 -0.74608,-0.85208 -1.71255,-1.28729 -2.70265,-1.22315 l -0.006,1.1e-4 c -0.688033,0.0524 -1.330103,0.33456 -1.883793,0.80273 -0.55403,0.46769 -1.02,1.12349 -1.34619,1.93213 -0.0381,0.10606 -0.0764,0.21467 -0.11428,0.32079 l 0.009,0.0747 c 0.17651,0.72092 0.93349,1.29062 1.83691,1.2583 1.03745,-0.0366 1.660633,-0.63404 1.642093,-1.46924 -0.0959,-0.39585 -0.489163,-0.76607 -0.933113,-0.8789 -0.31103,-0.0706 -0.58998,-0.0119 -0.81738,0.18456 -0.20229,0.16812 -0.52408,0.17258 -0.71045,0.006 -0.18961,-0.16103 -0.17942,-0.42655 0.0146,-0.5874 0.5059,-0.41156 1.1577,-0.54959 1.81348,-0.40137 0.793233,0.19654 1.459033,0.79697 1.618653,1.52198 l -10e-6,0.0586 c 0.0823,1.32738 -0.98346,2.43935 -2.611813,2.49024 -0.80145,0.0271 -1.53833,-0.26176 -2.0625,-0.72511 -0.0381,-0.0396 -0.076,-0.0792 -0.1128,-0.11865 -0.01,0.0892 -0.0209,0.17766 -0.0322,0.2666 v 0.22266 c 0.0268,-0.002 0.0523,-0.003 0.0791,-0.004 0.0653,0.003 0.12973,0.0219 0.19337,0.0571 0.24013,0.12175 0.33297,0.40556 0.19335,0.6416 -0.24473,0.38457 -0.31856,0.9443 -0.25927,1.44727 0.006,0.0424 0.0131,0.0836 0.019,0.12597 0.0182,0.0705 0.0359,0.14298 0.0527,0.21387 0.0297,0.10173 0.0597,0.20271 0.0894,0.30469 0.0229,0.0463 0.0433,0.0956 0.0659,0.14209 0.13016,0.23489 0.34529,0.40225 0.6167,0.47314 0.26407,0.0817 0.54038,0.0382 0.7793,-0.0864 0.34619,-0.19356 0.51668,-0.43697 0.50537,-0.72509 -0.003,-0.10606 -0.0356,-0.21974 -0.082,-0.33399 -0.17244,-0.17796 -0.45792,-0.29925 -0.68408,-0.27394 -0.15142,0.0114 -0.19016,0.0753 -0.22266,0.12744 -0.1252,0.25486 -0.44143,0.356 -0.70165,0.23731 -0.26299,-0.11593 -0.37071,-0.41451 -0.24463,-0.65772 0.20473,-0.3901 0.58989,-0.63434 1.06054,-0.67969 0.61627,-0.0619 1.26974,0.20434 1.6582,0.66504 l 0.0322,0.0395 0.0278,0.0513 c 0.457913,0.91467 0.14822,1.89908 -0.82178,2.44775 -0.37294,0.20782 -0.78136,0.29923 -1.19824,0.271 l -0.0117,-0.004 c 0.0357,0.0553 0.0701,0.10909 0.10547,0.16406 0.76023,1.11532 1.82081,1.82453 2.948733,1.77539 z m -9.811523,-0.006 c 1.13638,0.0525 2.2197,-0.69668 2.99414,-1.84863 0.0168,-0.0286 0.0328,-0.0582 0.0498,-0.0864 -0.12761,-0.001 -0.25338,-0.001 -0.38086,-0.004 -0.28118,-0.0339 -0.54818,-0.1151 -0.79541,-0.2622 -0.97807,-0.55114 -1.26782,-1.53736 -0.8042,-2.44776 l 0.0222,-0.0526 0.0396,-0.0396 c 0.38864,-0.47228 1.05012,-0.72553 1.6538,-0.66357 0.47358,0.0454 0.8556,0.28569 1.06201,0.68115 0.12586,0.24176 0.0143,0.53481 -0.24463,0.65625 -0.26988,0.11869 -0.58312,0.01 -0.70898,-0.23731 -0.0195,-0.0554 -0.0725,-0.11652 -0.21093,-0.13477 -0.23305,-0.0184 -0.52169,0.096 -0.68848,0.27392 -0.0564,0.12156 -0.085,0.23371 -0.0937,0.33984 -0.007,0.28838 0.15745,0.53145 0.50684,0.72657 0.48722,0.26831 1.1247,0.0924 1.39307,-0.38672 l 0.009,-0.0132 c 0.0378,-0.10893 0.0759,-0.21677 0.11277,-0.32375 0.0392,-0.14587 0.0776,-0.28918 0.11572,-0.43359 l -2e-5,-0.022 c 0.0666,-0.4962 -0.009,-1.05717 -0.24317,-1.44727 -0.13838,-0.22906 -0.0429,-0.51406 0.19629,-0.63427 0.0619,-0.0353 0.13321,-0.0518 0.19922,-0.0571 l 0.0762,2e-5 c -0.004,-0.0739 -0.009,-0.1462 -0.0132,-0.21973 -0.007,-0.0875 -0.0149,-0.17764 -0.0234,-0.26514 -0.0386,0.0395 -0.0774,0.0791 -0.11428,0.11864 -0.52591,0.46334 -1.25686,0.75041 -2.06835,0.72217 -1.62702,-0.0564 -2.68619,-1.16296 -2.60011,-2.49023 l 0.009,-0.0263 0.007,-0.0366 c 0.15673,-0.72382 0.82871,-1.31962 1.62891,-1.51319 0.66143,-0.14833 1.30857,-0.0102 1.81202,0.39844 0.19073,0.15695 0.20674,0.42639 0.0132,0.58887 -0.19263,0.16672 -0.50806,0.16228 -0.70459,-0.004 -0.23891,-0.19787 -0.51373,-0.26387 -0.82618,-0.18457 -0.4451,0.11142 -0.83988,0.48159 -0.93896,0.87744 -0.0268,0.83375 0.58872,1.43097 1.63623,1.46484 0.89889,0.0366 1.65873,-0.53443 1.84278,-1.2539 l 0.0132,-0.0747 c -0.0384,-0.10614 -0.0774,-0.21474 -0.11573,-0.3208 -0.32065,-0.80864 -0.78189,-1.46291 -1.33447,-1.93067 -0.55403,-0.46804 -1.20086,-0.75017 -1.88965,-0.80126 l -0.001,2e-5 c -0.99253,-0.0651 -1.96386,0.36787 -2.71728,1.21875 -0.75345,0.84956 -1.2873,2.12598 -1.43408,3.68262 -0.003,0.0689 -0.008,0.1376 -0.0103,0.20654 l 0.0469,0.0791 c 0.0169,0.0593 0.0262,0.12415 0.0176,0.19482 -0.0608,0.72953 0.31431,1.41195 0.82617,1.44726 0.60346,0.0438 0.94251,-0.28091 0.99609,-0.91259 -0.01,-0.31943 -0.19643,-0.52955 -0.4746,-0.83204 -0.22618,-0.24158 -0.47521,-0.50843 -0.59912,-0.88036 -0.0584,-0.16545 -0.21234,-0.67095 -0.17432,-1.08106 0.009,-0.0991 0.0202,-0.18933 0.0527,-0.27246 0.082,-0.22616 0.36234,-0.33718 0.61963,-0.25635 0.25147,0.0718 0.39262,0.32906 0.31641,0.55957 -0.0309,0.0807 0.002,0.40916 0.13769,0.77784 0.0608,0.18534 0.20772,0.33813 0.39698,0.53466 0.31656,0.33082 0.71327,0.73424 0.75146,1.43555 v 0.0469 c -0.0693,1.19008 -0.90671,1.97012 -2.10059,1.88672 -0.14005,-0.008 -0.27254,-0.0312 -0.40136,-0.0776 -0.0623,-0.0286 -0.12238,-0.0583 -0.18311,-0.0879 l 0.0117,0.0762 c 0.51063,1.98211 1.77473,3.5522 3.32958,3.62255 z m 18.367673,-4.53076 c 0.21584,0.001 0.43803,-0.0333 0.65332,-0.12598 0.57382,-0.24874 0.84096,-0.79402 0.96827,-1.20702 0.17815,-0.56662 0.21203,-1.22837 0.12012,-1.92921 -0.0834,-0.6729 -0.2855,-1.37169 -0.60206,-2.03906 -0.31656,-0.6645 -0.72447,-1.23457 -1.18505,-1.67431 -0.461,-0.43812 -0.97716,-0.74394 -1.5044,-0.90089 -0.24864,-0.068 -0.56763,-0.13074 -0.9126,-0.104 -0.20526,0.0142 -0.4209,0.0663 -0.63281,0.15967 -0.65025,0.28393 -1.06938,0.91909 -1.20117,1.74463 -0.13122,0.82699 0.0253,1.8507 0.51855,2.91211 0.0748,0.16298 0.15161,0.32535 0.25195,0.49072 0.0865,0.14012 0.1732,0.27867 0.25928,0.42041 l 0.0322,0.006 c 0.11715,0.0282 0.22202,0.11252 0.29443,0.22265 0.37041,0.64595 1.04947,1.0109 1.46924,0.77344 0.16393,-0.085 0.37083,-0.2452 0.42773,-0.5039 0.0237,-0.0805 0.0319,-0.16656 0.0176,-0.26514 -0.0154,-0.14873 -0.0743,-0.31731 -0.17724,-0.50244 -0.19072,-0.25584 -0.44628,-0.3363 -0.83497,-0.44676 -0.3139,-0.0889 -0.66927,-0.18177 -0.98439,-0.42478 -0.17519,-0.13334 -0.75476,-0.60648 -0.8833,-1.05176 -0.003,-0.0255 -0.0161,-0.0521 -0.0161,-0.0747 -0.0184,-0.20352 0.12543,-0.39906 0.35449,-0.46582 0.2544,-0.0675 0.52227,0.071 0.58886,0.29737 0.0253,0.0943 0.24592,0.33855 0.56104,0.58155 0.14844,0.11886 0.36752,0.1725 0.61817,0.24169 0.43113,0.11287 0.96847,0.2538 1.37695,0.82617 l 0.0147,0.019 0.0103,0.0279 c 0.37616,0.65864 0.37027,1.20115 0.28564,1.5293 -0.10462,0.46652 -0.403,0.84588 -0.86133,1.09863 -0.0538,0.0196 -0.10616,0.0401 -0.15966,0.0615 0.0594,0.0282 0.11791,0.0583 0.1772,0.088 0.25452,0.11034 0.59535,0.21341 0.95508,0.21533 z m -26.919433,-0.0103 c 0.36418,0.003 0.75764,-0.10276 1.1543,-0.29883 -0.0452,-0.0168 -0.0955,-0.0403 -0.148,-0.0673 -0.4578,-0.25994 -0.74791,-0.63774 -0.85108,-1.09717 -0.0834,-0.33524 -0.0928,-0.87226 0.29444,-1.53369 0.01,-0.0141 0.0191,-0.0284 0.0293,-0.0425 0.41011,-0.57237 0.94997,-0.71891 1.37842,-0.8291 0.24998,-0.0651 0.46415,-0.11872 0.6211,-0.2373 0.3192,-0.24188 0.53432,-0.49381 0.56103,-0.58009 0.0764,-0.23191 0.34014,-0.36411 0.59033,-0.29589 0.22762,0.0661 0.37282,0.25912 0.35742,0.46582 -0.001,0.0223 -0.006,0.0489 -0.0132,0.0747 -0.1357,0.44354 -0.71705,0.91761 -0.89502,1.04882 -0.31512,0.24322 -0.67494,0.33415 -0.98144,0.42041 -0.40317,0.10299 -0.64387,0.19398 -0.83936,0.44971 -0.10177,0.17847 -0.1675,0.34691 -0.19045,0.50097 -0.0125,0.0906 -0.004,0.17868 0.019,0.26513 0.0608,0.25154 0.26256,0.4121 0.42627,0.50391 0.42417,0.239 1.10061,-0.13307 1.4707,-0.77051 0.075,-0.12564 0.19988,-0.21204 0.33106,-0.24023 0.19499,-0.28538 0.37318,-0.58719 0.52441,-0.89942 0.50058,-1.0575 0.66176,-2.07943 0.53467,-2.90478 -0.12872,-0.82576 -0.54631,-1.46061 -1.19678,-1.7461 -0.16808,-0.0751 -0.343,-0.12212 -0.51709,-0.14501 l -0.001,2e-5 c -0.62664,-0.0832 -1.33816,0.11368 -2.0039,0.56982 -0.66397,0.45658 -1.27763,1.17592 -1.72559,2.09912 -0.3211,0.6674 -0.52624,1.38243 -0.6123,2.06836 -0.088,0.6838 -0.0556,1.33856 0.11279,1.89258 0.12586,0.41453 0.38499,0.95701 0.95215,1.2041 0.19129,0.0834 0.39966,0.12295 0.61817,0.12451 z m -31.31104,-6.7544 c -0.37929,-0.004 -0.75785,-0.052 -1.06054,-0.15527 -0.79802,-0.2891 -1.83642,-1.33114 -2.0083,-1.82812 -0.18915,-0.48653 -0.0273,-0.60009 0.39257,-0.28712 0.38556,0.31825 0.68281,0.7779 1.38569,0.65929 0.71053,-0.095 1.76049,-0.33693 2.417,0.0132 0.65596,0.35304 1.37391,0.46338 1.79297,0.22559 0.43416,-0.22999 1.62109,-1.18476 1.87207,-1.49414 0.25119,-0.33465 0.0737,-0.6413 -0.39258,-0.25928 -1.52502,1.20182 -3.37576,0.52699 -4.30225,-0.78222 -0.20385,-0.3004 -0.009,-0.56569 0.4043,-0.13624 0.4272,0.4362 1.38067,1.00334 2.12256,-0.0469 0.76015,-1.03485 2.0466,-1.70579 2.81542,-1.7373 0.73862,-0.0251 1.18094,-0.29283 1.4253,-0.67383 0.25839,-0.36977 0.47029,-1.06928 0.58594,-1.37549 0.0941,-0.30604 -0.20037,-0.38671 -0.46143,0.0483 -0.27784,0.44574 -0.66025,1.0528 -1.47803,1.25683 -0.98911,0.24784 -1.9592,-0.24461 -2.40966,-0.90087 -0.21526,-0.28708 -0.0356,-0.34066 0.3208,-0.14355 0.34243,0.20976 1.06824,0.53129 1.61132,-0.4336 0.44216,-0.76298 1.54592,-2.25141 2.22217,-2.41846 0.42487,-0.10632 0.71349,-0.0463 0.9126,-0.51123 0.21624,-0.45152 0.76613,-2.63773 1.24658,-3.61083 0.14491,0.0958 0.349,0.15159 0.43652,0.17725 -0.96928,2.09227 -0.94659,3.63178 -1.92187,6.61084 -1.52353,4.63502 -3.89041,6.26751 -5.12842,6.96094 -0.39442,0.23554 -0.80125,0.23968 -1.25244,0.54492 -0.28245,0.18804 -0.91619,0.30413 -1.54834,0.29736 z m 88.721198,0 c -0.6322,0.007 -1.26444,-0.10932 -1.54688,-0.29736 -0.45124,-0.30533 -0.8598,-0.30939 -1.2539,-0.54493 -1.23834,-0.69346 -3.6064,-2.32602 -5.12988,-6.96094 -0.97528,-2.97906 -0.95091,-4.5185 -1.92041,-6.61084 0.0878,-0.0255 0.29147,-0.0814 0.43652,-0.17725 0.48031,0.97319 1.03013,3.15924 1.24658,3.61084 0.19887,0.46469 0.48769,0.40494 0.9126,0.51123 0.67632,0.1672 1.78141,1.65533 2.22363,2.41846 0.54326,0.96487 1.26905,0.64329 1.61133,0.43359 0.35667,-0.19725 0.53298,-0.14344 0.31787,0.14356 -0.4506,0.65633 -1.41791,1.14886 -2.40673,0.90088 -0.81775,-0.20386 -1.20057,-0.8111 -1.47803,-1.25684 -0.26111,-0.43503 -0.55694,-0.35562 -0.4629,-0.0498 0.11553,0.30633 0.32776,1.00709 0.58594,1.37696 0.24452,0.38093 0.68664,0.64873 1.4253,0.67382 0.76853,0.0317 2.05681,0.7026 2.81689,1.73731 0.74196,1.05036 1.69363,0.48301 2.1211,0.0469 0.4136,-0.42931 0.60984,-0.1641 0.40576,0.13623 -0.92627,1.30928 -2.77737,1.98412 -4.30225,0.78222 -0.46599,-0.3818 -0.64555,-0.0769 -0.39404,0.25781 0.25075,0.30942 1.43785,1.26564 1.87207,1.49561 0.41905,0.23777 1.13713,0.12732 1.79297,-0.22559 0.6565,-0.35012 1.70662,-0.10822 2.41699,-0.0132 0.70336,0.11897 0.99884,-0.34081 1.38428,-0.65918 0.41977,-0.31292 0.58158,-0.20081 0.39258,0.28565 -0.17188,0.49698 -1.20904,1.54043 -2.00684,1.82959 -0.30269,0.10326 -0.68123,0.15119 -1.06055,0.15527 z m -42.647468,-1.41647 0.0205,-0.0146 c 0.3255,-0.25143 0.5151,-0.58095 0.50097,-0.92871 -0.01,-0.34906 -0.21511,-0.64033 -0.5332,-0.84815 -0.0555,-0.0296 -0.11058,-0.0597 -0.16553,-0.0893 0.20033,-0.007 0.401,-0.015 0.60205,-0.0249 1.05153,-0.0525 2.10466,-0.16075 3.143563,-0.30908 0.28259,-0.0395 0.56552,-0.0833 0.84814,-0.12744 -0.0383,0.0384 -0.0759,0.0774 -0.11426,0.11719 -0.16244,0.21913 -0.2421,0.46347 -0.22119,0.72217 0.0311,0.35033 0.2573,0.64919 0.60205,0.86133 0.0861,0.0425 0.17453,0.0867 0.26085,0.12868 -0.33658,0.0564 -0.67559,0.11043 -1.01514,0.16114 -1.098203,0.15405 -2.223613,0.2674 -3.351563,0.32812 -0.19263,0.008 -0.38504,0.0166 -0.57715,0.0234 z m -2.4873,-0.004 c -0.10893,-0.002 -0.21643,-0.004 -0.32373,-0.007 -1.13624,-0.0525 -2.26672,-0.15789 -3.3794,-0.30908 -0.41687,-0.0609 -0.83368,-0.12536 -1.24951,-0.19336 0.0778,-0.0396 0.15793,-0.0793 0.23584,-0.11865 0.35153,-0.21068 0.57268,-0.5165 0.60645,-0.8584 0.0271,-0.26155 -0.0529,-0.50028 -0.21826,-0.71777 -0.0326,-0.0326 -0.0656,-0.0657 -0.0981,-0.0996 0.33083,0.0523 0.6654,0.10289 0.99756,0.14795 1.05294,0.13335 2.10255,0.22852 3.16114,0.27246 0.14855,0.006 0.29701,0.009 0.44531,0.0132 -0.0494,0.0299 -0.0983,0.0597 -0.14941,0.0894 -0.31975,0.20782 -0.52602,0.49879 -0.53614,0.84521 -0.0143,0.34917 0.17567,0.67851 0.49365,0.92871 z m 1.25391,-0.23144 c -0.53453,0.001 -0.95478,-0.3164 -0.94483,-0.68262 0,-0.36046 0.42719,-0.64049 0.94336,-0.6416 0.5088,-10e-4 0.93202,0.27675 0.93457,0.63721 0.01,0.36622 -0.41016,0.6859 -0.9331,0.68701 z m 8.384773,-0.71045 c 0.0608,-0.0747 0.1209,-0.14914 0.18017,-0.22412 0.16251,-0.23874 0.22995,-0.51476 0.19336,-0.7793 -0.0525,-0.35463 -0.2965,-0.64453 -0.64014,-0.81591 -0.0326,-0.0126 -0.0656,-0.0242 -0.0982,-0.0366 0.45372,-0.10444 0.90562,-0.21359 1.35645,-0.3252 0.99232,-0.25316 1.9593,-0.52023 2.90918,-0.80712 0.0493,-0.0157 0.11037,10e-4 0.12889,0.0381 0.26978,0.50582 0.52721,1.02701 0.77198,1.56298 0.008,0.0183 0.008,0.0453 -0.006,0.0703 -0.0139,0.0214 -0.0365,0.0371 -0.0659,0.0513 -1.51118,0.45936 -3.06869,0.89589 -4.68018,1.25244 -0.0168,0.004 -0.0327,0.009 -0.0498,0.0132 z m -16.841323,-0.0234 c -0.4806,-0.1116 -0.95792,-0.22692 -1.43408,-0.34424 -1.06907,-0.27122 -2.12363,-0.57235 -3.15381,-0.88623 -0.0241,-0.0128 -0.0545,-0.0298 -0.0659,-0.0512 -0.008,-0.0239 -0.007,-0.0503 0.001,-0.0688 0.23433,-0.51309 0.47957,-1.01073 0.73681,-1.49561 0.027,-0.0437 0.0812,-0.065 0.1333,-0.0498 0.96413,0.29008 1.9464,0.56854 2.94727,0.81299 0.39585,0.096 0.79061,0.1893 1.18798,0.27832 -0.02,0.009 -0.0386,0.0183 -0.0586,0.0263 -0.34617,0.16834 -0.58778,0.45635 -0.64306,0.80859 -0.0381,0.26262 0.031,0.53891 0.18457,0.77637 0.0555,0.0651 0.10903,0.12855 0.16406,0.19336 z m 1.47071,-0.0366 c -0.0618,0.002 -0.12689,-6.6e-4 -0.1919,-0.009 -0.51064,-0.0634 -0.88173,-0.43934 -0.83349,-0.80713 0.055,-0.36907 0.50881,-0.60067 1.00927,-0.53174 0.49476,0.0695 0.88059,0.41176 0.83789,0.77344 -0.0481,0.31556 -0.38872,0.56128 -0.82177,0.57422 z m 13.920413,-0.007 c -0.43181,-0.0122 -0.78248,-0.252 -0.81299,-0.57861 -0.0427,-0.36477 0.33585,-0.70834 0.83203,-0.77637 0.50489,-0.0706 0.95714,0.16437 1.00929,0.53465 0.0555,0.37902 -0.32194,0.74651 -0.83936,0.81152 -0.0643,0.008 -0.12728,0.0105 -0.18896,0.009 z m -35.484383,-0.27542 c -2.88087,-0.1251 -5.98414,-1.94981 -6.62402,-5.49609 -0.44881,-2.54887 -0.04,-5.67794 1.51904,-8.41553 -0.25735,-0.002 -0.52093,-10e-4 -0.78516,0 -0.38735,0.35969 -0.54549,1.01047 -0.38672,1.35058 0.21556,0.41999 -0.0473,0.76802 -0.375,0.32227 -0.27255,-0.37087 -0.29304,-1.03449 -0.0981,-1.66846 -0.64882,0.0129 -1.31353,0.0355 -2.00391,0.0703 -0.10791,0.004 -0.26444,-0.10972 -0.19482,-0.19482 1.66941,-1.99547 2.9928,-3.87917 4.04736,-5.67627 -0.014,-0.0677 -0.0398,-0.13288 -0.0469,-0.20215 -1.72571,-0.0267 -2.32275,-2.412387 -1.70362,-3.254887 0.32762,-0.44587 0.59051,-0.0977 0.37501,0.32227 -0.24952,0.53457 0.20901,1.93068 1.26855,1.55566 -1.65562,-2.78371 -2.0755,-6.00964 -1.61572,-8.6206 0.51127,-2.83414 2.60073,-4.52821 4.88818,-5.1709 -0.52206,-3.24672 -1.62643,-6.31376 -2.66308,-9.41162 -0.63223,-0.13697 -1.29447,-0.45486 -1.64209,-1.05029 -0.69887,-1.24482 -0.31401,-2.20142 0.41748,-2.93995 -0.0402,-0.15004 -0.0831,-0.29905 -0.12159,-0.4497 -1.11705,0.63953 -2.25865,1.1204 -3.40576,1.36963 -0.004,0.0846 -0.0127,0.16732 -0.0322,0.25195 -0.22596,1.09365 -1.06311,1.5125 -1.91163,1.53076 -0.84851,0.0183 -1.70839,-0.36339 -1.98193,-0.87598 -0.26299,-0.49307 0.16697,-0.5802 0.45557,-0.20068 0.37807,0.461 1.85209,0.65158 1.97168,-0.47754 -3.25969,0.29293 -6.38218,-0.73298 -8.56055,-2.29248 -3.63343,-2.62372 -3.26026,-7.5084 -1.10596,-10.11035 2.15277,-2.60374 6.60817,-3.32252 8.58692,-1.9043 1.95654,1.42223 2.70778,4.6341 1.11621,6.58155 -1.59676,1.92252 -4.12555,2.2662 -5.3877,1.34326 -1.26146,-0.90347 -1.55625,-2.22416 -0.5332,-3.45118 0.60152,-0.72331 1.74807,-0.96673 2.4668,-0.4541 0.71004,0.49545 0.63366,1.38264 0.1582,1.94971 -0.47138,0.58451 -1.55524,0.72374 -1.88525,0.42188 -0.30433,-0.30621 -0.64992,-0.4745 -0.53467,0.0747 0.20856,0.96036 2.81314,2.66177 5.21045,-0.25489 0.99286,-1.21417 1.05068,-4.32267 -0.81885,-5.65576 -1.8743,-1.35112 -5.96325,-0.52047 -7.81348,1.75342 -1.87404,2.26513 -2.24658,6.9265 0.9961,9.25049 2.36064,1.69789 5.21028,2.42896 8.02734,2.11816 -0.31071,-0.66446 -1.2822,-0.70595 -1.62744,-0.63867 -0.40623,0.0994 -0.43313,-0.23683 0.0117,-0.49072 1.08421,-0.63222 2.62269,-0.12818 3.06592,0.87744 1.15906,-0.27884 2.28105,-0.78949 3.35742,-1.44287 -0.0528,-0.2261 -0.10568,-0.45195 -0.15381,-0.67969 -0.64646,0.42963 -1.37793,0.80667 -2.12109,0.81885 -0.42275,0.007 -0.83261,-0.0975 -1.20118,-0.36035 -1.86979,-1.35333 -0.88962,-3.21972 1.03418,-3.44971 0.4542,-0.0567 0.74582,0.34123 0.14209,0.4541 -0.60781,0.0914 -1.61129,0.63988 -1.31836,1.49121 0.2954,0.87038 1.38951,0.76643 2.09327,0.019 0.32398,-0.35507 0.64763,-0.77161 1.00195,-1.1543 -0.37358,-2.88431 -0.2495,-5.93929 0.79394,-9.30468 -3.15345,-0.90052 -6.09195,-3.62228 -5.98388,-7.69922 0.0955,-3.08156 1.33482,-6.6517 3.88037,-9.4292 -1.12069,-0.68007 -1.97455,0.80065 -1.81787,1.46777 0.1475,0.53002 -0.23287,0.8621 -0.49951,0.27832 -0.55459,-1.21631 1.00125,-4.21818 3.3164,-3.104 0.0914,0.0434 0.17249,0.0924 0.25049,0.14649 1.77663,-1.51171 4.04102,-2.66177 6.81885,-3.17432 -0.25203,-0.39085 -0.68654,-0.43579 -1.11475,-0.20361 -1.74794,0.91864 -4.27145,1.68767 -5.37891,-0.87745 -0.55208,-1.34196 0.47141,-3.02664 1.08838,-3.44824 0.61892,-0.42616 0.74576,0.11956 0.40723,0.49951 -1.27497,1.3989 -0.13136,3.27874 1.58789,2.51221 0.67768,-0.31335 1.66448,-0.85729 2.88574,-0.8291 1.22043,0.0257 1.97451,1.33546 1.77686,2.01709 -0.015,0.0501 -0.0239,0.0978 -0.0322,0.14795 0.4296,-0.0478 0.87167,-0.0794 1.32129,-0.0952 1.63912,-0.0574 3.21861,0.0849 4.63623,0.58301 -0.83232,-1.96509 -0.96108,-4.23308 -0.17432,-6.39697 1.32098,-3.63182 5.33742,-5.50785 8.96924,-4.18653 2.90645,1.0577 4.4057,4.27129 3.34864,7.17774 -0.84595,2.324 -3.41649,3.52524 -5.74073,2.67627 -1.85841,-0.6728 -2.82087,-2.72828 -2.14306,-4.59082 0.54151,-1.48749 2.18454,-2.25499 3.67383,-1.7168 1.07895,0.39305 1.67841,1.5173 1.45459,2.61182 0.0527,-0.3935 -0.002,-0.79542 -0.17432,-1.16456 -0.23847,-0.50943 -0.66521,-0.89741 -1.19531,-1.08837 -0.69976,-0.25509 -1.43431,-0.18157 -2.04932,0.1333 -0.64079,0.27132 -1.17531,0.79206 -1.43262,1.49707 -0.61114,1.6873 0.25753,3.54673 1.94239,4.15869 2.1062,0.76426 4.43217,-0.3214 5.1958,-2.42725 0.95785,-2.63083 -0.39912,-5.53937 -3.03077,-6.49658 -3.29064,-1.19865 -6.92764,0.50235 -8.12402,3.79102 -1.49406,4.11156 0.62576,8.65411 4.74024,10.15283 0.63313,0.23029 1.28907,0.36914 1.95263,0.46435 0.35415,-0.1095 0.70133,-0.22978 1.05176,-0.34423 -1.02844,-0.0742 -2.046,-0.26542 -3.00879,-0.61524 -3.77306,-1.37209 -5.77927,-5.78909 -4.37842,-9.646 1.09403,-3.00216 4.75505,-4.65528 7.83692,-3.53173 2.47421,0.90073 3.75981,3.64736 2.85937,6.12158 -0.73009,2.01275 -2.9593,3.05285 -4.96728,2.32031 -0.79122,-0.28639 -1.42546,-0.8664 -1.77979,-1.63037 -0.35759,-0.76444 -0.39361,-1.61945 -0.10693,-2.41113 0.23149,-0.63415 0.69119,-1.11748 1.24951,-1.40332 0.58309,-0.2469 1.25406,-0.28803 1.89551,-0.0542 1.07813,0.39118 1.63593,1.58067 1.24219,2.65869 -0.14469,0.39755 -0.42969,0.70185 -0.77491,0.88916 -0.42024,0.18887 -0.91019,0.22105 -1.37695,0.0513 -0.0907,-0.033 -0.17511,-0.0753 -0.25488,-0.12305 -0.21458,-0.15619 -0.37901,-0.36321 -0.48047,-0.60058 0.20387,0.2693 0.52254,0.44677 0.88623,0.44677 0.14987,0 0.29419,-0.0298 0.4248,-0.0835 0.2143,0.0207 0.4292,-0.0112 0.62842,-0.10254 0.29361,-0.14113 0.51722,-0.38398 0.62842,-0.68848 0.14771,-0.39805 0.12752,-0.83144 -0.0527,-1.21582 -0.17693,-0.38466 -0.49678,-0.67493 -0.89501,-0.82031 -1.06219,-0.38437 -2.2383,0.16634 -2.625,1.22607 -0.24145,0.65965 -0.20701,1.37307 0.0864,2.00977 0.29821,0.63461 0.82565,1.11676 1.48535,1.35791 1.73283,0.62978 3.66058,-0.26628 4.29053,-2.00098 0.80071,-2.2064 -0.33778,-4.65092 -2.5415,-5.45361 -2.81784,-1.02294 -6.16512,0.48073 -7.16162,3.22119 -1.30264,3.58606 0.55806,7.69264 4.06494,8.9707 1.36984,0.49754 2.84536,0.67088 4.31396,0.60498 0.15411,-0.0564 0.30262,-0.12324 0.45557,-0.18164 -0.55606,-0.0309 -0.8362,-0.20096 -0.96826,-0.38085 0,0 0.25822,0.38002 1.18359,-0.28126 0.92158,-0.66179 1.50146,-0.12011 1.50146,-0.12011 -0.81607,0.25204 -1.10037,0.44052 -1.56445,0.47021 0.12547,0.0469 0.49223,-0.0222 0.84521,-0.10254 0.4677,-0.19836 0.93735,-0.39405 1.39014,-0.62109 -0.0809,-0.0182 -0.13459,-0.003 -0.22119,-0.0293 -1.18277,-0.36005 -1.60322,-0.13015 -1.74463,0.0132 0.17279,-0.33148 0.4412,-0.67855 1.50293,-0.91846 1.10088,-0.24798 1.71376,-0.12706 2.11084,0.0161 0.1471,-0.0928 0.28882,-0.19684 0.4336,-0.29443 -0.23629,-0.007 -0.47027,-0.0113 -0.74121,-0.0439 -1.23464,-0.14782 -1.54829,-0.62732 -1.78712,-1.08691 0,0 0.32247,0.75807 1.88965,-0.17871 0.7942,-0.47483 1.54413,-0.14377 2.06397,0.23584 0.10997,-0.0935 0.21849,-0.18979 0.32666,-0.28711 -0.0257,-0.0351 -0.0279,-0.0269 -0.0542,-0.0674 0.0231,0.0239 0.0521,0.0271 0.0762,0.0483 0.0259,-0.0234 0.0504,-0.0496 0.0762,-0.0733 l -0.0234,-1.5 c -0.62298,0.49071 -0.39187,1.11885 -0.13037,1.52197 -0.32361,-0.33591 -0.54517,-0.82573 -0.44385,-1.1748 l -0.0147,-0.0308 c -0.12593,0.43527 -0.0217,0.88165 0.24024,1.21143 -0.44033,-0.46678 -0.8063,-1.37368 0.42187,-2.87696 0,0 1.12813,1.00224 -0.0102,2.81251 1.70091,-1.5686 3.16562,-3.64161 4.29053,-6.4834 0.0278,-0.5648 0.48319,-9.87327 0.13916,-13.21289 -0.3233,4.10049 -0.51082,12.717 -0.4834,13.49267 -0.37312,-0.7504 -3.73892,-9.47359 0.47755,-20.67919 4.12754,14.33903 1.17503,19.21312 0.17139,20.38037 1.12079,2.83906 2.58234,4.91082 4.277353,6.48047 0.07,-0.0492 0.14248,-0.0916 0.20654,-0.15527 -0.0796,0.11835 -0.10392,0.13317 -0.16114,0.19775 0.0931,0.0855 0.18244,0.17968 0.27686,0.26221 0.50824,-0.42239 1.34341,-0.89977 2.23974,-0.36328 1.5672,0.93439 1.88819,0.17871 1.88819,0.17871 -0.23399,0.45546 -0.55445,0.9353 -1.78711,1.08545 -0.3764,0.0454 -0.72084,0.0656 -1.02979,0.0644 -0.0357,-1.3e-4 -0.0534,-0.008 -0.0879,-0.009 0.18519,0.13217 0.37182,0.26 0.56104,0.38379 0.24741,-0.14016 0.90358,-0.44684 2.36279,-0.11719 1.05897,0.23963 1.32977,0.58504 1.50147,0.91699 -0.14276,-0.14335 -0.56463,-0.36934 -1.74463,-0.0103 -0.25091,0.0757 -0.43654,0.0684 -0.64014,0.0835 0.39714,0.21014 0.80476,0.39872 1.21435,0.58447 -0.1444,-0.11414 -0.27246,-0.23877 -0.27246,-0.23877 0.14294,0.0322 1.44269,0.42542 1.71534,0.3208 -0.46822,-0.0275 -0.75406,-0.21745 -1.57031,-0.47461 0,0 0.57808,-0.53763 1.50146,0.12451 0.92565,0.65912 1.18799,0.28125 1.18799,0.28125 -0.1838,0.22544 -0.41802,0.45175 -1.21729,0.41309 -0.21838,-0.0121 -0.38137,-0.0558 -0.54931,-0.0952 0.12901,0.0535 0.25673,0.10946 0.38671,0.16114 1.74861,0.20279 3.53894,0.0726 5.17969,-0.52588 3.50897,-1.27155 5.36957,-5.37892 4.06641,-8.96778 -0.99628,-2.73842 -4.34263,-4.24411 -7.16309,-3.21826 -2.20319,0.80293 -3.34454,3.2465 -2.5415,5.45069 0.62978,1.73719 2.55548,2.63629 4.29053,2.0039 0.65964,-0.24109 1.19045,-0.72452 1.48388,-1.35645 0.29578,-0.63949 0.32968,-1.35201 0.0864,-2.01416 -0.38438,-1.05769 -1.5617,-1.60751 -2.62353,-1.22314 -0.39824,0.1434 -0.71809,0.43427 -0.89502,0.82324 -0.17968,0.38251 -0.20074,0.81208 -0.0527,1.20997 0.10893,0.30495 0.33481,0.55399 0.62842,0.68994 0.2,0.0928 0.41794,0.12445 0.63281,0.10253 0.12919,0.0525 0.27001,0.0835 0.41748,0.0835 0.36825,0 0.69187,-0.17932 0.89502,-0.45264 -0.10159,0.24123 -0.27109,0.45012 -0.48926,0.60791 -0.0789,0.047 -0.16092,0.0907 -0.25048,0.12305 -0.46721,0.17056 -0.95721,0.13555 -1.37696,-0.0527 -0.34611,-0.18641 -0.63021,-0.48804 -0.77637,-0.88623 -0.3913,-1.0782 0.16759,-2.26789 1.24365,-2.66163 0.6381,-0.23261 1.30589,-0.19231 1.88672,0.0513 0.56224,0.2855 1.02524,0.7709 1.25684,1.40918 0.28877,0.7918 0.24974,1.64541 -0.10547,2.40967 -0.35711,0.76148 -0.98926,1.34438 -1.77832,1.62891 -2.01031,0.73009 -4.23973,-0.3107 -4.97168,-2.31885 -0.89812,-2.47439 0.38541,-5.2226 2.8623,-6.12305 3.08152,-1.12145 6.74056,0.52987 7.83692,3.53174 1.398635,3.85719 -0.6049,8.27385 -4.37842,9.64746 -1.19847,0.43543 -2.47863,0.62067 -3.76172,0.62696 0.37848,0.13016 0.756,0.26285 1.13965,0.38525 0.89072,-0.0692 1.77296,-0.2105 2.61621,-0.51709 4.11447,-1.49406 6.233525,-6.04314 4.7373,-10.15283 -1.19416,-3.29047 -4.83191,-4.99148 -8.12255,-3.79248 -2.62949,0.95721 -3.98703,3.86735 -3.0293,6.50097 0.76374,2.10335 3.08931,3.18677 5.1958,2.42285 1.68241,-0.61196 2.55451,-2.47406 1.94091,-4.15722 -0.25716,-0.71022 -0.7942,-1.23128 -1.43847,-1.50147 -0.61371,-0.31163 -1.34805,-0.38495 -2.04493,-0.1333 -0.52992,0.19312 -0.95477,0.58334 -1.19091,1.09277 -0.17113,0.36721 -0.22513,0.76732 -0.17578,1.1587 -0.22006,-1.09405 0.37522,-2.21143 1.45459,-2.60743 1.48928,-0.53668 3.13323,0.23018 3.67236,1.71533 0.67996,1.85993 -0.28196,3.91845 -2.14014,4.59375 -2.3268,0.84811 -4.89618,-0.35436 -5.74219,-2.67627 -1.05508,-2.90877 0.44592,-6.11952 3.3501,-7.1792 3.63421,-1.31928 7.64791,0.55669 8.969235,4.18653 0.83186,2.28859 0.64834,4.69748 -0.317865,6.73682 1.520405,-0.33161 3.080445,-0.71882 4.778315,-0.65918 0.44995,0.016 0.89141,0.0474 1.32129,0.0952 -0.009,-0.0502 -0.017,-0.0978 -0.0322,-0.14795 -0.19767,-0.68156 0.55664,-1.99149 1.77686,-2.01709 1.22047,-0.0281 2.20801,0.51584 2.88574,0.8291 1.71958,0.7667 2.86289,-1.11328 1.58789,-2.51221 -0.33844,-0.37994 -0.21164,-0.92547 0.40723,-0.4995 0.61725,0.4217 1.64056,2.10631 1.08838,3.44824 -1.10761,2.56512 -3.63067,1.79604 -5.37891,0.87744 -0.42792,-0.2322 -0.86298,-0.18722 -1.11475,0.20361 2.77751,0.51255 5.04099,1.66253 6.81738,3.17432 0.0786,-0.054 0.16157,-0.10311 0.25343,-0.14649 2.31505,-1.11415 3.86848,1.88762 3.31493,3.10401 -0.26688,0.58366 -0.64733,0.25166 -0.4995,-0.27832 0.15599,-0.6671 -0.69621,-2.14935 -1.81495,-1.46924 2.5436,2.7775 3.78192,6.34916 3.87744,9.43066 0.1082,4.07913 -2.83297,6.82 -5.98828,7.7212 1.08984,3.52753 1.1691,6.7151 0.72656,9.72216 0.19187,0.24829 0.39174,0.50204 0.58594,0.71485 0.70401,0.74738 1.79597,0.85134 2.0918,-0.019 0.29294,-0.85133 -0.7108,-1.39986 -1.31836,-1.49121 -0.60373,-0.11287 -0.31143,-0.51084 0.14209,-0.45411 1.92431,0.23 2.90396,2.09638 1.03418,3.44971 -0.3687,0.26287 -0.77853,0.36728 -1.20118,0.36035 -0.5777,-0.01 -1.15291,-0.25991 -1.69335,-0.5625 -0.0493,0.22425 -0.10888,0.44526 -0.1626,0.66797 0.94972,0.52877 1.93023,0.95537 2.93994,1.19825 0.44289,-1.00562 1.98188,-1.50967 3.06592,-0.87745 0.44484,0.25389 0.41674,0.59007 0.0103,0.49073 -0.34533,-0.0673 -1.31519,-0.0258 -1.62598,0.63867 2.81706,0.3108 5.66644,-0.42028 8.02734,-2.11817 3.24233,-2.32399 2.87022,-6.98536 0.99609,-9.25048 -1.85022,-2.27389 -5.94081,-3.10454 -7.81494,-1.75342 -1.86969,1.33309 -1.81119,4.44158 -0.81884,5.65576 2.39807,2.91666 5.00214,1.21525 5.21045,0.25488 0.11525,-0.5492 -0.22938,-0.3809 -0.53321,-0.0747 -0.33036,0.30187 -1.41362,0.16263 -1.88525,-0.42187 -0.47546,-0.56707 -0.55185,-1.45426 0.1582,-1.94971 0.71898,-0.51263 1.86528,-0.26922 2.4668,0.4541 1.02305,1.22702 0.72671,2.54771 -0.53467,3.45117 -1.26198,0.92295 -3.79061,0.57927 -5.38916,-1.34326 -1.59174,-1.94744 -0.83887,-5.15931 1.11768,-6.58154 1.97874,-1.41823 6.43603,-0.69944 8.58837,1.9043 2.15431,2.60195 2.52583,7.48662 -1.10742,10.11035 -2.17812,1.5595 -5.30086,2.58541 -8.56055,2.29248 0.1212,1.12912 1.59361,0.93854 1.97168,0.47754 0.2886,-0.37952 0.72011,-0.29239 0.45704,0.20068 -0.27351,0.51258 -1.13343,0.89424 -1.98194,0.87598 -0.84851,-0.0183 -1.68558,-0.43711 -1.91162,-1.53076 -0.0171,-0.0846 -0.0294,-0.16733 -0.0337,-0.25196 -1.00342,-0.21806 -2.00186,-0.61992 -2.98535,-1.13525 -0.055,0.20995 -0.12353,0.41518 -0.18164,0.62402 0.47414,0.67724 0.63143,1.50814 0.0571,2.53125 -0.24448,0.41879 -0.65687,0.66491 -1.09424,0.84522 -0.49935,1.49851 -1.01825,2.98979 -1.48535,4.49414 -0.54974,1.77095 -1.02013,3.56424 -1.29639,5.41845 1.94046,0.80181 3.6115,2.39311 4.05908,4.875 0.45996,2.61086 0.04,5.8368 -1.61572,8.62061 1.05968,0.37496 1.51983,-1.02103 1.27002,-1.55566 -0.21533,-0.41995 0.0459,-0.76668 0.37353,-0.32081 0.53578,0.72906 0.14016,2.575927 -1.08984,3.084967 1.08602,1.90733 2.48144,3.91428 4.26563,6.04688 0.0699,0.0851 -0.087,0.19871 -0.19483,0.19482 -1.0107,-0.051 -1.96014,-0.0702 -2.88281,-0.0747 0.19653,0.63511 0.17506,1.3011 -0.0981,1.67285 -0.3275,0.44575 -0.58889,0.0991 -0.37354,-0.3208 0.15865,-0.33991 0.001,-0.9921 -0.38525,-1.35205 -0.26407,0.003 -0.52526,0.007 -0.78223,0.0132 1.55296,2.73443 1.96147,5.8575 1.51318,8.40234 -0.63974,3.54636 -3.74317,5.37098 -6.62402,5.4961 -0.66481,0.0289 -1.3181,-0.0328 -1.92627,-0.18457 -3.24418,-0.80694 -5.790875,-4.47607 -5.371575,-6.84815 0.43246,-2.35442 2.977635,-4.39902 5.396475,-3.81152 2.39936,0.60427 3.78623,2.71232 3.50244,4.2334 -0.26674,1.51223 -1.3181,2.34189 -2.85058,1.9541 -0.90288,-0.22743 -1.61045,-1.14741 -1.46045,-2.0083 0.13844,-0.8454 0.96335,-1.15714 1.67285,-0.97558 0.72314,0.17104 1.3105,1.07755 1.18213,1.50146 -0.14312,0.40221 -0.1451,0.7828 0.2959,0.44531 0.7676,-0.59673 1.17207,-3.64871 -2.45655,-4.54102 -1.50817,-0.3666 -4.30768,0.91197 -4.697745,3.15088 -0.40411,2.25052 2.086505,5.54394 4.907225,6.22266 2.82299,0.70356 7.14409,-0.95784 7.83105,-4.84571 0.49653,-2.78205 -0.0441,-5.5859 -1.46777,-7.94091 -0.0762,0.13728 -0.15543,0.25756 -0.23145,0.33691 -0.0187,0.0195 -0.0334,0.0291 -0.0512,0.0454 -0.0569,0.48639 0.1813,1.01096 0.33252,1.21436 0.26263,0.3202 -0.0268,0.48761 -0.44385,0.19922 -0.64971,-0.44063 -0.95208,-1.23061 -0.91992,-1.96436 -0.39745,0.0252 -0.78926,0.0536 -1.16895,0.0879 -0.27131,0.82472 -0.79879,1.25834 -1.40039,1.30957 -0.6085,0.0518 -1.26498,-0.28083 -1.7666,-0.89355 -12.979975,2.29794 -14.328435,10.34077 -26.538568,10.24365 -12.44771,0.099 -13.61007,-8.25886 -27.31348,-10.36816 -0.51073,0.697 -1.21815,1.07337 -1.86768,1.01806 -0.6176,-0.0526 -1.15745,-0.50737 -1.4209,-1.37695 -0.37686,-0.0263 -0.7606,-0.0498 -1.1543,-0.0674 0.0481,0.7465 -0.25196,1.56124 -0.91549,2.01124 -0.41691,0.28842 -0.70488,0.12107 -0.44239,-0.19922 0.15115,-0.20306 0.38889,-0.72682 0.33253,-1.2129 -0.0183,-0.0167 -0.0335,-0.0269 -0.0527,-0.0469 -0.076,-0.0793 -0.15383,-0.19979 -0.22998,-0.33691 -1.42372,2.35515 -1.9641,5.15864 -1.46777,7.94092 0.68718,3.88779 5.00759,5.54921 7.83105,4.8457 2.82033,-0.67867 5.30994,-3.97228 4.90576,-6.22266 -0.38985,-2.23899 -3.18818,-3.51734 -4.69629,-3.15088 -3.62861,0.89232 -3.22568,3.94444 -2.458,4.54102 0.44093,0.33765 0.43922,-0.0432 0.29589,-0.44531 -0.12791,-0.42387 0.46017,-1.33056 1.1836,-1.50147 0.70928,-0.18147 1.53297,0.1288 1.67139,0.97412 0.14999,0.86089 -0.55618,1.78249 -1.45899,2.00977 -1.53282,0.38799 -2.5851,-0.44195 -2.85205,-1.9541 -0.28373,-1.52117 1.10292,-3.62919 3.50244,-4.2334 2.41901,-0.58759 4.96417,1.45717 5.39649,3.81152 0.41921,2.37224 -2.12718,6.04114 -5.37159,6.84815 -0.60817,0.15182 -1.26145,0.21344 -1.92627,0.18457 z m 40.146983,-87.723637 c 0.0224,0.11153 0.0435,0.22374 0.0835,0.33399 0.17746,0.48587 0.5376,0.84863 0.97412,1.04443 0.30552,0.16455 0.65915,0.23817 1.01514,0.18896 -0.35877,0.0689 -0.7295,0.0321 -1.06641,-0.12451 -0.42064,-0.19936 -0.74207,-0.54935 -0.90381,-0.98584 -0.0534,-0.14914 -0.0831,-0.30281 -0.10253,-0.45703 z m 2.07275,1.56738 c 0.0895,-0.0172 0.17937,-0.0365 0.2666,-0.0674 0.12841,-0.0471 0.24008,-0.11552 0.3457,-0.19189 0.13611,-0.081 0.25266,-0.18285 0.35303,-0.29883 -0.15079,0.21149 -0.36449,0.37934 -0.62695,0.47461 -0.11222,0.0406 -0.22467,0.0678 -0.33838,0.0835 z m 1.10156,-0.86718 c 0.0595,-0.14123 0.096,-0.29068 0.1084,-0.44532 -0.002,0.12896 -0.0252,0.25412 -0.063,0.375 0.10859,-0.17233 0.17586,-0.37582 0.17578,-0.59472 0.003,0.35764 -0.12429,0.69788 -0.35302,0.96533 0.0755,-0.108 0.13075,-0.22774 0.1716,-0.35292 -0.0125,0.0184 -0.0263,0.0349 -0.0396,0.0527 z m 0.22119,-0.66504 c 0,-0.16161 -0.035,-0.31413 -0.0967,-0.45264 l 0.0161,-0.0337 c 0.0578,0.16094 0.0791,0.3246 0.0806,0.48633 z m -0.0967,-0.45264 -0.0719,0.1552 c -0.009,-0.0307 -0.0138,-0.0618 -0.0249,-0.0923 l -0.49512,0.18164 c 0.17542,0.47712 -0.0719,1.00559 -0.54784,1.17774 -0.097,0.0363 -0.19699,0.0542 -0.29737,0.0644 -0.40832,-0.16578 -0.69873,-0.56567 -0.69873,-1.03418 0,-0.61609 0.50261,-1.11328 1.11621,-1.11328 0.45655,0 0.84601,0.27112 1.01954,0.66065 z m -0.0161,0.67236 c 0.002,-0.15687 -0.0205,-0.31673 -0.0776,-0.47314 l 0.0205,-0.0439 c 0.0502,0.17235 0.0708,0.34669 0.0571,0.51709 z m -4.5249,6.68995 c 0.0507,0.0509 0.0703,0.0923 0.0703,0.0923 -0.0143,-0.0306 -0.0543,-0.0614 -0.0703,-0.0923 z m -5.76416,-2.6001 c 0.27002,-0.40145 0.52958,-1.04608 -0.11133,-1.55127 l -0.0205,1.53955 c -1.219153,-1.8626 -0.0498,-2.88428 -0.0498,-2.88428 1.21798,1.48977 0.86407,2.39523 0.42773,2.86524 0.25626,-0.329 0.35798,-0.77029 0.23291,-1.20264 l -0.0118,0.0322 c 0.10278,0.35874 -0.12997,0.86559 -0.46729,1.20117 z m -15.016113,2.86377 c -0.0156,0.03 -0.0547,0.0598 -0.0688,0.0894 0,0 0.0191,-0.0389 0.0688,-0.0894 z m -3.09961,-5.87549 c -0.10134,-0.01 -0.20154,-0.0287 -0.30029,-0.0645 -0.47485,-0.1728 -0.72405,-0.7044 -0.55078,-1.17774 l -0.49365,-0.1831 c -0.0113,0.0311 -0.0144,0.0638 -0.0234,0.0952 l -0.0732,-0.15674 c 0.17439,-0.3889 0.5625,-0.66064 1.0166,-0.66064 0.61609,0 1.11767,0.49801 1.11767,1.11474 0,0.46623 -0.28656,0.86581 -0.69287,1.03272 z m -1.4414,-1.48682 c -0.0582,0.12982 -0.091,0.27127 -0.0952,0.42188 0.005,-0.15102 0.026,-0.30305 0.0806,-0.45264 z m -0.0952,0.42188 c -4.6e-4,0.0145 -0.003,0.0294 -0.003,0.0439 -4e-5,-0.004 -10e-4,-0.007 -10e-4,-0.0117 1e-5,-0.0107 0.004,-0.0216 0.004,-0.0322 z m -0.003,0.0439 c 0.002,0.22101 0.0683,0.42669 0.18164,0.59913 0.0422,0.12867 0.10133,0.25295 0.18018,0.36328 -0.23184,-0.26606 -0.36259,-0.60619 -0.36182,-0.96241 z m 0.36182,0.96241 c 0.0994,0.11404 0.21296,0.21555 0.34717,0.2959 0.10627,0.0774 0.22066,0.14731 0.35009,0.19482 0.0872,0.0309 0.17566,0.0502 0.26514,0.0674 -0.11334,-0.0158 -0.2265,-0.0427 -0.33838,-0.0835 -0.26182,-0.095 -0.47347,-0.26395 -0.62402,-0.47461 z m 0.9624,0.5581 c 0.35703,0.0499 0.71074,-0.0245 1.0166,-0.19043 0.4356,-0.19577 0.7967,-0.55934 0.97266,-1.04443 0.0397,-0.1087 0.061,-0.2195 0.0835,-0.32959 -0.0204,0.1521 -0.053,0.30256 -0.10694,0.44971 -0.15696,0.43881 -0.47673,0.78665 -0.89941,0.98437 -0.33698,0.15999 -0.70749,0.19918 -1.06641,0.13037 z m -1.14258,-0.92138 c -0.0411,-0.12537 -0.0636,-0.2555 -0.0659,-0.38965 0.0131,0.15558 0.0521,0.30623 0.11279,0.44824 -0.015,-0.0198 -0.0332,-0.0378 -0.0469,-0.0586 z m -0.0659,-0.38965 c -0.0144,-0.17117 0.006,-0.34572 0.0557,-0.51856 l 0.019,0.0454 c -0.0564,0.15666 -0.0774,0.31587 -0.0747,0.47315 z m -14.44039,86.143067 c -0.0916,-7.6e-4 -0.18332,-0.007 -0.2754,-0.022 -1.49579,-0.23078 -2.37263,-0.96596 -3.65771,-2.33789 0.45731,0.45752 1.38032,0.86924 2.21045,0.43066 0.83823,-0.42096 1.55029,-0.30805 2.60596,0.18897 1.06593,0.50603 1.5074,-0.11661 1.8413,-0.60498 0.31854,-0.50037 0.51068,-0.34668 0.27979,0.15528 -0.34066,0.72563 -1.63068,2.20133 -3.0044,2.18994 z m 57.818838,0 c -1.37341,0.0114 -2.66213,-1.46437 -3.00293,-2.18994 -0.23073,-0.502 -0.0416,-0.65555 0.27686,-0.15528 0.33407,0.48847 0.77699,1.11082 1.84277,0.60498 1.05574,-0.49687 1.76937,-0.60982 2.60742,-0.18896 0.83007,0.43862 1.75332,0.027 2.21046,-0.43066 -1.28516,1.37179 -2.16339,2.1071 -3.65918,2.33789 -0.092,0.0146 -0.18383,0.0212 -0.2754,0.022 z m -28.272938,-0.0102 c -2.02551,0.013 -4.06018,-0.16496 -6.06299,-0.5083 -2.00286,-0.34208 -3.97186,-0.84947 -5.88721,-1.41797 -0.2883,-0.0875 -0.44344,-0.33478 -0.35156,-0.54785 0.0965,-0.21651 0.40442,-0.3102 0.68701,-0.21973 1.86466,0.58511 3.77815,1.09936 5.72314,1.44434 1.94517,0.34504 3.91783,0.52255 5.88428,0.5083 1.96446,-0.0139 3.92046,-0.21951 5.828613,-0.57422 1.90856,-0.35511 3.76701,-0.85814 5.56348,-1.41944 0.27868,-0.0875 0.59199,0.008 0.68408,0.22852 0.0945,0.20782 -0.0589,0.46326 -0.35009,0.54932 -1.84179,0.5444 -3.75383,1.0393 -5.71582,1.39013 -1.96334,0.35051 -3.977433,0.55441 -6.002933,0.5669 z m -32.29102,-3.89502 c -0.38139,0.0311 -0.87453,-0.0997 -1.43994,-0.646 -1.14083,-1.07576 -1.30325,-2.88119 -0.0117,-3.19922 1.29359,-0.31685 1.39611,1.53308 1.17188,2.1958 -0.23466,0.63851 0.37378,0.88655 0.75439,0.72363 0.37805,-0.16231 0.64769,0.27756 0.2959,0.59766 -0.11877,0.10394 -0.38912,0.297 -0.77051,0.32812 z m 63.309078,0 c -0.38136,-0.0311 -0.65029,-0.22419 -0.76903,-0.32815 -0.35165,-0.32019 -0.0836,-0.75996 0.29445,-0.59765 0.38083,0.163 0.98929,-0.0849 0.7544,-0.72363 -0.22394,-0.6625 -0.11997,-2.51244 1.17334,-2.1958 1.29185,0.31806 1.12772,2.12324 -0.0132,3.19922 -0.56528,0.54618 -1.05859,0.67713 -1.43995,0.64599 z m -31.214348,-0.58741 c 13.674313,0.11044 12.449193,-11.11217 34.092768,-10.00342 0.0986,0.004 0.24263,-0.10261 0.17871,-0.18164 -8.45955,-10.266437 -7.55237,-17.458737 -5.45801,-24.309077 2.1268,-6.95459 5.47953,-13.55497 1.49854,-22.65674 -7.47811,-17.10152 -24.416545,-7.72208 -30.312008,-23.65723 -5.89555,15.93515 -22.83237,6.55571 -30.31055,23.65723 -7.90195,18.06667 13.08777,26.27673 -3.95947,46.965817 -0.0637,0.079 0.0785,0.18611 0.17724,0.18165 21.64486,-1.10876 20.41845,10.11385 34.09278,10.00341 z m -41.50928,-2.36279 c -2.54374,-0.0651 -3.83123,-2.62181 -2.78613,-4.31103 0.23405,-0.36917 0.55131,-0.0687 0.39844,0.22996 -0.85279,1.4812 0.52459,3.50671 2.09472,3.12451 0.38575,-0.0892 0.61598,-0.14961 0.42481,-0.54638 -0.26958,-0.55156 -0.0422,-1.95457 1.16309,-2.24707 0.78038,-0.19096 1.18851,0.13559 1.39892,0.59619 0.20733,0.45687 0.34175,0.90011 0.85986,0.78369 0.51758,-0.13553 1.46078,-0.93403 2.14453,-2.26025 0.006,0.10052 0.0849,0.33527 0.21387,0.5332 -0.63336,1.40541 -2.12139,3.30376 -4.74902,3.96241 -0.41155,0.10217 -0.79969,0.14406 -1.16309,0.13476 z m 82.138178,0 c -0.36338,0.009 -0.75155,-0.0326 -1.16309,-0.13477 -2.62772,-0.65859 -4.11549,-2.55701 -4.74901,-3.9624 0.1291,-0.19795 0.2076,-0.43268 0.21384,-0.53321 0.68397,1.32629 1.62678,2.12474 2.14453,2.26025 0.51833,0.11649 0.65069,-0.32683 0.85839,-0.78369 0.21051,-0.46083 0.61993,-0.78693 1.4004,-0.59619 1.20528,0.2925 1.43254,1.69538 1.16308,2.24707 -0.19132,0.39661 0.0407,0.45711 0.42627,0.54638 1.5703,0.38217 2.94749,-1.64336 2.09473,-3.12451 -0.15284,-0.29863 0.16267,-0.59903 0.39697,-0.22998 1.04482,1.6892 -0.24246,4.24593 -2.78613,4.31104 z m -69.541988,-5.21192 c 0.35943,0.0361 0.73619,-0.15627 1.02392,-0.3999 -0.5576,-0.0766 -1.13914,-0.14096 -1.73877,-0.19629 0.0428,0.11932 0.0896,0.23842 0.19922,0.3457 0.1586,0.15635 0.33477,0.23232 0.51575,0.25026 z m 56.945798,0 c 0.18073,-0.0182 0.35702,-0.0941 0.51563,-0.25048 0.0777,-0.076 0.10384,-0.16053 0.1465,-0.24316 -0.5196,0.0602 -1.02359,0.12686 -1.51025,0.20362 0.25916,0.17991 0.5536,0.31967 0.84814,0.29003 z m -61.098628,-8.629387 c 0.0762,-0.13713 0.15404,-0.2576 0.22998,-0.33692 0.0187,-0.0195 0.0335,-0.0291 0.0513,-0.0454 0.0569,-0.48634 -0.17987,-1.00957 -0.33105,-1.21289 -0.26263,-0.3202 0.0255,-0.4891 0.44238,-0.20068 0.35906,0.24347 0.57584,0.61015 0.72656,1.00195 1.577,-3.51137 2.0927,-6.68139 1.98487,-9.65478 -0.37123,0.0188 -0.73317,-0.0201 -1.11036,-0.20948 -0.83005,-0.43855 -1.75315,-0.0285 -2.21044,0.42921 1.12862,-1.20505 1.96609,-1.89248 3.16113,-2.20459 -0.005,-0.038 -0.008,-0.0763 -0.0132,-0.11426 -2.05218,0.63495 -3.96271,2.14044 -4.39893,4.6084 -0.49631,2.78233 0.0443,5.58438 1.46777,7.93945 z m 65.311518,-0.11866 c 1.37265,-2.33111 1.89766,-5.08358 1.40918,-7.8208 -0.37494,-2.122 -1.85172,-3.53167 -3.5581,-4.30224 -0.005,0.04 -0.009,0.0801 -0.0132,0.1201 0.78837,0.38586 1.47411,0.98928 2.32031,1.89258 -0.45709,-0.4576 -1.38032,-0.86789 -2.21045,-0.4292 -0.0771,0.0387 -0.15006,0.0408 -0.22559,0.0688 -0.11937,2.78798 0.288,5.7435 1.61866,8.99414 0.0688,-0.067 0.12521,-0.14552 0.20654,-0.20068 0.41715,-0.2883 0.70631,-0.11954 0.44385,0.20068 -0.10965,0.14729 -0.22847,0.47284 -0.28418,0.82031 0.0986,0.21907 0.18591,0.43447 0.29297,0.65626 z m -68.056638,-0.98291 c -0.68377,-1.32626 -1.62693,-2.12467 -2.14453,-2.26025 -0.51812,-0.11641 -0.6526,0.32521 -0.85986,0.78223 -0.21056,0.46068 -0.61852,0.7872 -1.39893,0.59619 -1.20526,-0.29245 -1.43269,-1.69532 -1.16309,-2.24707 0.19116,-0.39653 -0.0391,-0.45714 -0.4248,-0.54639 -1.57013,-0.38218 -2.94749,1.64336 -2.09473,3.12451 0.15289,0.29873 -0.16423,0.59761 -0.39844,0.22852 -1.1944,-1.93055 0.65668,-4.99359 3.94922,-4.17627 2.62748,0.65871 4.11567,2.55992 4.74903,3.96533 -0.12892,0.19794 -0.20758,0.43263 -0.21389,0.53319 z m 70.743158,0 c -0.006,-0.10065 -0.0864,-0.33527 -0.21533,-0.5332 0.63336,-1.40541 2.12123,-3.3066 4.74903,-3.96533 3.29222,-0.81729 5.14337,2.2456 3.94921,4.17627 -0.2343,0.36904 -0.54978,0.0701 -0.39697,-0.22852 0.85276,-1.48116 -0.52444,-3.50809 -2.09472,-3.12597 -0.3856,0.0893 -0.61781,0.15133 -0.42627,0.54785 0.26961,0.55175 0.0422,1.95447 -1.16309,2.24707 -0.78034,0.19085 -1.18986,-0.13542 -1.40039,-0.5962 -0.20753,-0.45683 -0.34004,-0.89876 -0.8584,-0.78222 -0.51756,0.13553 -1.45907,0.93391 -2.14306,2.26025 z m -70.318348,-0.65918 c -0.48056,-0.97307 -1.03032,-3.15925 -1.24659,-3.61083 -0.19911,-0.46494 -0.48776,-0.40643 -0.9126,-0.5127 -0.67627,-0.1671 -1.78013,-1.65536 -2.22216,-2.41846 -0.54311,-0.96494 -1.26896,-0.64342 -1.61133,-0.43359 -0.35644,0.19707 -0.53469,0.14333 -0.31934,-0.14355 0.45031,-0.65618 1.41777,-1.14879 2.40674,-0.90087 0.81785,0.20381 1.20165,0.81255 1.47949,1.25829 0.26106,0.43506 0.55689,0.35272 0.46289,0.0469 -0.11577,-0.30621 -0.32892,-1.00577 -0.5874,-1.37549 -0.2442,-0.38102 -0.68681,-0.64723 -1.4253,-0.67235 -0.76885,-0.0316 -2.05513,-0.70398 -2.81543,-1.73877 -0.74188,-1.0502 -1.69546,-0.48155 -2.12256,-0.0454 -0.41352,0.42946 -0.60801,0.16119 -0.40429,-0.13917 0.92664,-1.30929 2.77733,-1.98264 4.30225,-0.78076 0.46638,0.38197 0.64382,0.0768 0.39258,-0.25782 -0.25096,-0.30932 -1.43791,-1.26561 -1.87207,-1.4956 -0.41906,-0.23777 -1.13699,-0.1274 -1.79297,0.22558 -0.65658,0.34997 -1.7065,0.10811 -2.417,0.0132 -0.70303,-0.11893 -1.00026,0.34092 -1.38574,0.65918 -0.42002,0.31304 -0.58153,0.20104 -0.39258,-0.28564 0.17195,-0.49683 1.21013,-1.54043 2.0083,-1.82959 0.8072,-0.2753 2.15718,-0.15875 2.60889,0.14209 0.45139,0.30527 0.85797,0.31085 1.25245,0.54637 1.23809,0.69332 3.60489,2.32592 5.12842,6.96093 0.97528,2.97907 0.95405,4.51712 1.92334,6.60938 l -0.001,2e-5 c -0.0875,0.0257 -0.2916,0.083 -0.43652,0.17871 z m 69.892088,0 c -0.14505,-0.0958 -0.34874,-0.15323 -0.43653,-0.17871 0.96948,-2.09229 0.9466,-3.63031 1.92188,-6.60937 1.52348,-4.63493 3.8901,-6.26754 5.12842,-6.96094 0.39413,-0.23557 0.80266,-0.24105 1.2539,-0.54639 0.45193,-0.30091 1.80023,-0.41738 2.60742,-0.14209 0.79781,0.28917 1.83494,1.33266 2.00684,1.8296 0.18918,0.4866 0.0272,0.59854 -0.39258,0.28564 -0.38546,-0.31832 -0.68091,-0.77817 -1.38428,-0.65917 -0.71051,0.0949 -1.76049,0.33694 -2.417,-0.0132 -0.65583,-0.35291 -1.37391,-0.46337 -1.79296,-0.22558 -0.43422,0.22996 -1.62122,1.18623 -1.87208,1.4956 -0.25134,0.33458 -0.0719,0.63969 0.39405,0.25782 1.52514,-1.20196 3.37606,-0.52831 4.30225,0.78076 0.204,0.30047 0.008,0.56839 -0.40577,0.13916 -0.42757,-0.43631 -1.37913,-1.00495 -2.12109,0.0454 -0.76008,1.0347 -2.04819,1.70713 -2.81689,1.73877 -0.7385,0.0251 -1.1808,0.29148 -1.4253,0.67236 -0.2582,0.36991 -0.47049,1.06918 -0.58594,1.37549 -0.0939,0.30589 0.20015,0.38813 0.46143,-0.0469 0.27747,-0.44574 0.66175,-1.05444 1.47949,-1.2583 0.98882,-0.24799 1.95613,0.24454 2.40674,0.90087 0.21508,0.28693 0.0387,0.34076 -0.31787,0.14356 -0.34235,-0.20979 -1.06807,-0.53127 -1.61133,0.43359 -0.44225,0.76318 -1.54729,2.25122 -2.22363,2.41846 -0.42489,0.10624 -0.71371,0.048 -0.9126,0.5127 -0.21646,0.45161 -0.76625,2.6376 -1.24658,3.61084 z m -67.825198,-3.04248 c -0.0718,-0.004 -0.14621,-0.0139 -0.22705,-0.0337 -1.29163,-0.31798 -1.12923,-2.12493 0.0117,-3.20068 1.13067,-1.09248 1.97291,-0.52575 2.21044,-0.31787 0.35167,0.32023 0.0821,0.75993 -0.29591,0.59765 -0.38063,-0.16298 -0.98907,0.0849 -0.7544,0.72363 0.21016,0.62116 0.1316,2.28608 -0.94482,2.23096 z m 65.758298,0 c -1.0761,0.0551 -1.15477,-1.60987 -0.94482,-2.23095 0.23487,-0.63871 -0.3737,-0.88675 -0.7544,-0.72364 -0.37798,0.16217 -0.6461,-0.27741 -0.29443,-0.59765 0.23746,-0.20786 1.0784,-0.77457 2.20898,0.31787 1.14074,1.07583 1.30509,2.88265 0.0132,3.20068 -0.0808,0.0198 -0.15678,0.03 -0.22852,0.0337 z m -41.957518,-5.79199 c -1.77141,0 -3.36922,-0.438 -4.79297,-1.31543 -1.40719,-0.86087 -2.51545,-2.06095 -3.32666,-3.60058 -0.79465,-1.52309 -1.19238,-3.22794 -1.19238,-5.11524 0,-1.85419 0.38104,-3.51042 1.14257,-4.96729 0.7781,-1.4403 1.84609,-2.5736 3.20362,-3.40136 1.37409,-0.81121 2.93016,-1.21729 4.66846,-1.21729 1.27475,0 2.54995,0.20722 3.82471,0.6211 1.2913,0.43043 2.27582,0.97695 2.95458,1.63916 v 6.53027 l 2.21045,0.47168 1e-5,0.57129 h -7.05323 v -0.57129 l 2.23535,-0.47168 v -4.84277 c 0,-0.39733 -0.0167,-0.6782 -0.0498,-0.84375 -0.0166,-0.16556 -0.0666,-0.31434 -0.14942,-0.44678 -0.29799,-0.49666 -0.76103,-0.87769 -1.39013,-1.14258 -0.61254,-0.24833 -1.33289,-0.37207 -2.16065,-0.37207 -2.10251,0 -3.67528,0.70365 -4.71826,2.11084 -1.02643,1.4072 -1.53955,3.51813 -1.53955,6.33252 0,2.93028 0.54651,5.14826 1.63916,6.65479 1.09265,1.50652 2.70715,2.26025 4.84277,2.26025 0.9271,0 1.7211,-0.15859 2.38331,-0.47314 0.67876,-0.298 1.29205,-0.79443 1.83837,-1.48975 0.54632,-0.69532 1.08303,-1.6548 1.6128,-2.87988 h 0.57128 v 5.71142 h -0.54638 l -1.34033,-1.26709 h -0.0996 c -0.54632,0.48011 -1.23328,0.8528 -2.06104,1.11768 -0.82776,0.26488 -1.73027,0.39697 -2.70703,0.39697 z m 20.815433,-0.24756 v -0.57129 l 2.23535,-0.47168 v -17.03613 l -2.23535,-0.47168 v -0.57129 h 7.05322 l 1e-5,0.57129 -2.21046,0.47168 v 17.03613 l 2.21045,0.47168 v 0.57129 z m -57.098153,-5.72607 c -2.18763,0.043 -3.98217,-2.87544 -1.86767,-5.43604 1.74773,-2.10658 4.12777,-2.63253 5.68506,-2.5957 0.12393,0.20379 0.30582,0.37832 0.39258,0.42773 -1.50737,0.0442 -2.64775,0.55453 -2.99707,0.9668 -0.33232,0.42145 0.0124,0.7363 0.33837,1.125 0.3279,0.39296 0.44738,0.90727 -0.0674,1.53516 -0.79298,0.97066 -2.17136,0.56416 -2.55615,0.0776 -0.27805,-0.34771 -0.43462,-0.16299 -0.68408,0.14941 -1.03437,1.26392 0.21042,3.40407 1.93213,3.27392 0.33928,-0.009 0.4737,0.40913 0.0351,0.46143 -0.0713,0.008 -0.14037,0.0133 -0.21094,0.0147 z m 91.123538,0 c -0.0706,-10e-4 -0.14114,-0.007 -0.2124,-0.0147 -0.43855,-0.0523 -0.30405,-0.4701 0.0352,-0.46143 1.72196,0.13014 2.96745,-2.00999 1.93359,-3.27392 -0.24981,-0.31241 -0.40637,-0.49713 -0.68408,-0.14942 -0.38505,0.48652 -1.76507,0.89303 -2.55762,-0.0776 -0.51501,-0.62788 -0.39527,-1.14219 -0.0674,-1.53515 0.32601,-0.38871 0.67258,-0.70355 0.33984,-1.125 -0.34958,-0.41227 -1.48988,-0.92265 -2.99707,-0.9668 0.0887,-0.0494 0.26865,-0.22394 0.39258,-0.42773 1.55729,-0.0368 3.93699,0.48912 5.68506,2.5957 2.1145,2.5606 0.31997,5.47904 -1.86768,5.43603 z m -40.816395,-1.02686 c -0.963043,0 -1.690443,-0.78794 -1.690443,-1.83252 0,-1.1285 0.90645,-1.90134 2.277843,-3.07031 0.23292,-0.1985 0.49757,-0.42361 0.77197,-0.66357 0.0362,-0.0317 0.0822,-0.0483 0.13037,-0.0483 0.0482,0 0.0957,0.0167 0.13184,0.0483 0.27443,0.24 0.53745,0.46496 0.77051,0.66357 1.37146,1.16874 2.27783,1.94181 2.27783,3.07032 0,1.04457 -0.72594,1.83251 -1.68897,1.83252 -0.34509,-1e-5 -0.66155,-0.10952 -0.94043,-0.3252 -0.26736,-0.20678 -0.44598,-0.4706 -0.55078,-0.66211 -0.10479,0.19152 -0.28195,0.45533 -0.54931,0.66211 -0.27888,0.21568 -0.59534,0.32519 -0.94043,0.3252 z m -63.130383,-1.15283 c -0.078,-0.0117 -0.18693,-0.0872 -0.32226,-0.23145 -0.37765,-0.37348 -0.87539,-1.77464 -0.79102,-2.62793 0.10224,-0.85592 0.79718,-2.03427 1.26856,-2.31445 0.4752,-0.27805 0.65751,-0.64745 1.04443,-0.90381 1.1725,-0.82555 3.69392,-2.26935 8.58252,-1.6333 3.14087,0.41253 4.53381,1.10464 6.86426,1.13526 -0.015,0.0911 -0.0508,0.30222 -0.0293,0.47607 -1.0968,0.0128 -3.32913,-0.44092 -3.83496,-0.44092 -0.51042,-0.0215 -0.5817,0.26718 -0.86426,0.60791 -0.44748,0.54317 -2.28582,0.89886 -3.17431,0.96827 -1.11654,0.0736 -1.13989,0.87521 -1.09864,1.2788 0.026,0.41082 -0.10223,0.55141 -0.26953,0.22999 -0.40215,-0.69721 -0.42922,-1.79541 0.22852,-2.58838 0.54316,-0.65604 1.26398,-0.74017 1.7915,-0.79834 0.51042,-0.048 0.56531,-0.35193 0.2461,-0.39991 -0.33011,-0.0282 -1.0591,-0.14112 -1.50879,-0.0674 -0.45378,0.0564 -0.891,0.34281 -1.23633,1.00489 -0.36523,0.68666 -1.53923,1.56674 -2.81396,1.80761 -1.28104,0.21724 -1.17895,1.33326 -0.96827,1.91309 0.21077,0.56443 -0.11848,0.62592 -0.30322,0.30908 -0.78813,-1.41601 -0.59403,-3.39663 1.16748,-4.26123 0.55142,-0.25797 0.35297,-0.55461 -0.0601,-0.47168 -0.39321,0.0933 -1.78483,0.75783 -2.18408,1.05323 -0.39976,0.27796 -0.6116,0.97972 -0.57715,1.73144 0.0328,0.75105 -0.64533,1.60305 -1.04297,2.20898 -0.41465,0.58876 -0.12577,1.05972 -0.004,1.54981 0.0636,0.3246 0.0201,0.48397 -0.10987,0.46436 z m 116.768558,0 c -0.12996,0.0196 -0.17345,-0.13976 -0.10987,-0.46436 0.12181,-0.49009 0.41098,-0.96106 -0.004,-1.5498 -0.39687,-0.60594 -1.07529,-1.45794 -1.04297,-2.20898 0.035,-0.75173 -0.17764,-1.45349 -0.57714,-1.73145 -0.39926,-0.2954 -1.78835,-0.95992 -2.17969,-1.05322 -0.41491,-0.0829 -0.61458,0.2137 -0.063,0.47168 1.76125,0.86459 1.95466,2.84521 1.16602,4.26123 -0.1845,0.31683 -0.51244,0.25535 -0.30176,-0.30908 0.21077,-0.57983 0.31268,-1.69586 -0.96827,-1.91309 -1.27474,-0.24088 -2.45062,-1.12096 -2.81543,-1.80762 -0.34523,-0.66207 -0.78117,-0.94849 -1.23486,-1.00488 -0.44969,-0.0737 -1.18066,0.0391 -1.51025,0.0674 -0.31973,0.048 -0.2658,0.35193 0.24463,0.3999 0.52752,0.0582 1.24971,0.1423 1.79297,0.79834 0.65774,0.79298 0.63136,1.89117 0.22998,2.58838 -0.16737,0.32144 -0.29344,0.18084 -0.26954,-0.22998 0.0417,-0.40359 0.0177,-1.20524 -1.09863,-1.27881 -0.88867,-0.0694 -2.72805,-0.4251 -3.17578,-0.96826 -0.28238,-0.34074 -0.35358,-0.62943 -0.86425,-0.60791 -0.50583,0 -2.73868,0.45367 -3.83497,0.44091 0.0239,-0.17385 -0.0129,-0.38497 -0.0278,-0.47607 2.32977,-0.0306 3.72218,-0.72273 6.8628,-1.13525 4.88859,-0.63605 7.40864,0.80774 8.58105,1.6333 0.38701,0.25636 0.57044,0.62576 1.0459,0.90381 0.47164,0.28017 1.16682,1.45853 1.26855,2.31445 0.0851,0.85328 -0.41199,2.25445 -0.78955,2.62793 -0.13527,0.1443 -0.24575,0.21968 -0.32373,0.23145 z m -103.107418,-8.68213 c -0.77481,-0.0411 -1.62272,-0.80787 -1.95411,-1.8457 -0.50149,-1.50711 0.38236,-2.02623 0.6753,-2.15186 0.44535,-0.18083 0.72842,0.25536 0.41601,0.52881 -0.3147,0.27584 -0.35414,0.93835 0.33252,1.00342 0.69891,0.0851 2.34104,0.9884 1.48682,2.02881 -0.26665,0.32435 -0.60436,0.45522 -0.95654,0.43652 z m 89.446288,0 c -0.35226,0.0187 -0.68819,-0.11217 -0.95508,-0.43652 -0.85346,-1.04041 0.78665,-1.94367 1.48828,-2.02881 0.68445,-0.0651 0.64447,-0.72758 0.32959,-1.00342 -0.31292,-0.27346 -0.0295,-0.70964 0.41602,-0.52881 0.29301,0.12563 1.17678,0.64475 0.67529,2.15186 -0.33132,1.03783 -1.17913,1.80456 -1.9541,1.8457 z m -93.285648,-3.03222 c -0.68878,-1.77019 -0.97739,-2.891 -0.53467,-4.35499 0.43013,-1.44442 2.54452,-2.04724 3.40869,-2.04052 0.55814,0.009 0.61384,0.25039 0.0191,0.32226 -0.59097,0.0911 -1.35065,0.22135 -1.35498,1.41358 -0.009,1.17896 -0.21642,1.87792 -0.96534,2.45801 -0.7621,0.56468 -0.79015,1.58508 -0.57275,2.20166 z m 97.126458,-1e-5 c 0.21724,-0.61657 0.18944,-1.63697 -0.57275,-2.20165 -0.74959,-0.58009 -0.95683,-1.27905 -0.96533,-2.45801 -0.005,-1.19223 -0.76531,-1.32248 -1.35644,-1.41358 -0.5948,-0.0719 -0.53789,-0.31359 0.0205,-0.32226 0.86383,-0.007 2.97614,0.5961 3.40576,2.04052 0.44315,1.46399 0.15714,2.5848 -0.53174,4.35498 z M -155.96184,58.557533 c -0.72716,0.023 -1.767,-0.17705 -2.40527,-0.55517 -0.84098,-0.51895 -1.77328,-1.94805 -1.85157,-2.55323 -0.1,-0.60012 0.11002,-0.69294 0.51416,-0.23437 0.36261,0.45345 0.59224,1.04608 1.42237,1.07666 0.8318,0.0611 2.083,0.0351 2.74512,0.58886 0.66444,0.55615 1.45383,0.8529 1.98779,0.68116 0.55003,-0.16046 2.12582,-0.96823 2.48437,-1.26123 0.365,-0.31897 0.23366,-0.70884 -0.38965,-0.38526 -2.01775,1.00582 -3.96555,-0.19967 -4.708,-1.90869 -0.16063,-0.38896 0.12454,-0.6447 0.49365,-0.0586 0.38435,0.59746 1.33112,1.46809 2.42578,0.44971 1.10762,-0.99887 2.73351,-1.45698 3.61523,-1.31104 0.84665,0.14484 1.41377,-0.0548 1.78272,-0.43066 0.38012,-0.35805 0.7869,-1.1054 0.99316,-1.42676 0.17797,-0.32575 -0.13942,-0.48836 -0.53906,-0.0542 -0.42099,0.44317 -1.00171,1.03997 -1.979,1.08106 -1.18373,0.0456 -2.16977,-0.73946 -2.52832,-1.59522 -0.17575,-0.37556 0.0408,-0.39646 0.39697,-0.0879 0.34326,0.3193 1.09123,0.85524 1.93799,-0.11133 0.68429,-0.76669 2.29264,-2.19581 3.10254,-2.22656 0.50827,-0.0216 0.82238,0.11458 1.15869,-0.36767 0.3541,-0.46269 1.49851,-2.82159 2.27344,-3.81446 0.14561,0.14344 0.36049,0.25384 0.45556,0.30615 -1.59854,2.15208 -1.93738,3.90987 -3.75293,7.06788 -2.82953,4.91489 -5.90947,6.2136 -7.48388,6.70898 -0.50433,0.17352 -0.96956,0.0822 -1.55567,0.32373 -0.14657,0.059 -0.3538,0.0905 -0.59619,0.0982 z m 103.710938,0 c -0.24235,-0.008 -0.44956,-0.0391 -0.59619,-0.0981 -0.58612,-0.24156 -1.04933,-0.15013 -1.55566,-0.32373 -1.57439,-0.4952 -4.65357,-1.79402 -7.48389,-6.70898 -1.81527,-3.15797 -2.15447,-4.91579 -3.75293,-7.06788 0.0954,-0.0523 0.30987,-0.16266 0.45556,-0.30615 0.77512,0.99286 1.92048,3.35183 2.27491,3.81446 0.33631,0.48226 0.64902,0.34598 1.15722,0.36767 0.80991,0.0306 2.41827,1.45979 3.10254,2.22656 0.84674,0.96658 1.59539,0.43055 1.93799,0.11133 0.35664,-0.30867 0.57219,-0.28772 0.39697,0.0879 -0.359,0.85568 -1.34322,1.6408 -2.52685,1.59522 -0.97739,-0.0412 -1.561,-0.63792 -1.98193,-1.08106 -0.39977,-0.43421 -0.71621,-0.27156 -0.5376,0.0542 0.20643,0.32135 0.6127,1.06876 0.99316,1.42676 0.36914,0.37595 0.93468,0.5756 1.78125,0.43066 0.88194,-0.14587 2.50901,0.31214 3.6167,1.31104 1.09484,1.01838 2.0446,0.14773 2.42871,-0.44971 0.36906,-0.58612 0.6513,-0.33037 0.49072,0.0586 -0.74313,1.70895 -2.69048,2.91456 -4.708,1.90869 -0.62321,-0.32355 -0.75421,0.0663 -0.38965,0.38526 0.35799,0.29293 1.9344,1.1009 2.48437,1.26123 0.53423,0.17189 1.32334,-0.12489 1.98779,-0.68116 0.66208,-0.5538 1.91361,-0.52762 2.74512,-0.58886 0.83015,-0.0306 1.05969,-0.62314 1.42237,-1.07666 0.40401,-0.45854 0.61375,-0.36578 0.51416,0.23437 -0.0783,0.60518 -1.01134,2.03436 -1.85156,2.55322 -0.63869,0.37816 -1.67822,0.57811 -2.40528,0.55518 z m -17.95312,-0.26367 c 2.83908,-0.8626 5.62036,-3.3931 5.51074,-7.00635 -0.0957,-3.34441 -1.41531,-6.45918 -3.66504,-8.81982 -0.39133,0.7496 0.24891,1.66275 0.55078,1.93213 0.37586,0.3016 0.0884,0.56578 -0.4541,0.33544 -1.3364,-0.5492 -1.95027,-2.31151 -1.34034,-3.41894 -1.79136,-1.45574 -4.00887,-2.49022 -6.55664,-2.93115 -0.1196,0.61478 -0.15555,0.93305 0.71339,1.02832 1.47001,0.17572 4.3375,1.0931 4.40478,3.17578 0.0694,2.65358 -2.32106,3.06046 -3.87598,1.46191 -0.36931,-0.37348 -0.20873,-0.91956 0.31641,-0.44385 0.50608,0.48874 1.70844,1.02435 2.28222,0.15967 0.59047,-0.8776 -0.26652,-1.80521 -1.4414,-1.9248 -1.19036,-0.10462 -2.70906,0.22364 -3.62989,-0.88184 -0.88627,-1.1093 -0.34564,-1.55239 -0.0117,-1.93506 0.17623,-0.19069 0.28339,-0.46249 0.32224,-0.77491 -0.38871,-0.041 -0.79201,-0.0715 -1.19824,-0.0908 -1.80736,-0.0612 -3.56569,0.0423 -5.326165,0.68848 -0.0545,0.02 -0.10391,0.0346 -0.15088,0.0469 -0.99866,1.57546 -2.49778,2.85035 -4.38574,3.53614 -0.38933,0.14163 -0.78073,0.25381 -1.17334,0.34424 4.08593,1.22596 8.317275,2.36407 11.988275,5.18554 0.72316,-0.4243 1.53675,-0.67312 2.39795,-0.64453 2.87123,0.11882 4.94996,2.18994 4.98926,3.99023 0.0474,1.55709 -0.7101,2.66491 -2.12549,2.86817 0.34141,0.61206 0.67274,1.25334 0.98584,1.94385 0.0592,-0.0375 0.10624,-0.0392 0.16846,-0.0864 1.08157,-0.81442 1.86705,-1.11146 2.92089,-0.8335 1.05079,0.30408 1.99986,-0.3822 2.41553,-1.01221 -1.13822,1.86545 -1.96357,2.91035 -3.6123,3.52735 -0.30374,0.11519 -0.62168,0.15617 -0.9419,0.14062 -0.0881,-0.004 -0.17414,-0.0439 -0.2622,-0.0571 0.0618,0.16569 0.12728,0.33241 0.18457,0.49658 z m -67.813478,-0.004 c 0.0565,-0.16187 0.12073,-0.32591 0.18164,-0.48926 -0.084,0.0124 -0.16638,0.0501 -0.25049,0.0542 -0.32029,0.0156 -0.63953,-0.0254 -0.94336,-0.14062 -1.6477,-0.61686 -2.47281,-1.66187 -3.61084,-3.52735 0.41465,0.63009 1.36417,1.31622 2.41553,1.01221 1.05341,-0.27799 1.83963,0.019 2.9209,0.8335 0.0593,0.045 0.1046,0.0461 0.16112,0.0821 0.31299,-0.68991 0.64312,-1.33082 0.98438,-1.94239 -1.40848,-0.20725 -2.16275,-1.31076 -2.11524,-2.86377 0.0387,-1.80042 2.11678,-3.87288 4.9878,-3.99169 0.85891,-0.0285 1.67035,0.21789 2.39209,0.64013 3.5491,-2.72597 7.62234,-3.87898 11.58105,-5.05957 -0.25194,-0.0701 -0.50579,-0.11259 -0.75586,-0.20361 -2.02568,-0.73532 -3.6096,-2.14353 -4.60107,-3.87891 -0.0356,-0.006 -0.0674,-0.007 -0.10547,-0.019 -1.72542,-0.53569 -3.41004,-0.69534 -5.16065,-0.63574 -0.4063,0.0192 -0.80961,0.0498 -1.19824,0.0908 0.0387,0.31251 0.14591,0.5842 0.32227,0.7749 0.33414,0.38268 0.87462,0.82583 -0.0117,1.93506 -0.9207,1.10556 -2.43948,0.7772 -3.62988,0.88183 -1.17473,0.11948 -2.03164,1.04731 -1.44141,1.92481 0.57332,0.8646 1.77584,0.32903 2.28223,-0.15967 0.52556,-0.47581 0.68715,0.0703 0.31787,0.44385 -1.55502,1.59838 -3.94705,1.1916 -3.87744,-1.46192 0.0673,-2.08269 2.93455,-3.00003 4.40478,-3.17578 0.86905,-0.0953 0.83357,-0.41352 0.71631,-1.02832 -2.5496,0.44095 -4.76912,1.4769 -6.56103,2.93262 0.61057,1.10751 -0.001,2.86828 -1.33741,3.41748 -0.5428,0.23028 -0.8314,-0.0338 -0.45556,-0.33545 0.30184,-0.26931 0.94163,-1.18256 0.55078,-1.93213 -2.25021,2.36068 -3.56952,5.4754 -3.66504,8.81983 -0.10951,3.60906 2.66628,6.13649 5.50195,7.00195 z m 1.10449,-5.45947 c 0.19925,0.0614 0.23523,-0.27341 0.1831,-0.6416 -0.0455,-0.51284 0.83902,-1.40579 1.70362,-1.42969 0.35497,-0.0163 0.6789,0.10832 0.96533,0.29297 0.77936,-0.96012 1.59997,-1.80277 2.45947,-2.53125 -0.59179,-0.2955 -1.18706,-0.50007 -1.69775,-0.4834 -4.33969,0.15867 -4.60407,3.72638 -3.87012,4.58642 0.10536,0.12207 0.18993,0.18607 0.25635,0.20655 z m 65.613278,0 c 0.0664,-0.0205 0.15098,-0.0845 0.25635,-0.20655 0.73369,-0.86008 0.46885,-4.42926 -3.87012,-4.58789 -0.51254,-0.0167 -1.10969,0.18972 -1.70361,0.4878 0.85965,0.72903 1.67859,1.57329 2.45801,2.53418 0.28817,-0.18842 0.61432,-0.31678 0.97265,-0.3003 0.86443,0.0239 1.74921,0.91835 1.70361,1.43115 -0.052,0.36821 -0.0161,0.70303 0.18311,0.64161 z m 3.84668,-0.1084 c -0.36542,0.005 -0.65283,-0.12395 -0.79248,-0.20362 -0.47597,-0.27821 -0.27394,-0.84422 0.19336,-0.74853 0.47308,0.0957 1.10559,-0.32977 0.68848,-1.00342 -0.41253,-0.69916 -0.73222,-2.82817 0.81445,-2.77441 1.54624,0.0547 1.78741,2.14822 0.74268,3.64453 -0.57801,0.84899 -1.17666,1.07863 -1.64649,1.08545 z m -73.154298,-0.006 c -0.48831,0.0422 -1.15639,-0.13627 -1.79883,-1.07959 -1.04423,-1.49625 -0.80355,-3.58988 0.74268,-3.64453 1.54617,-0.0538 1.22677,2.07532 0.81445,2.77441 -0.41681,0.67379 0.21534,1.09905 0.68848,1.00342 0.46697,-0.0957 0.6703,0.47021 0.19482,0.74853 -0.11973,0.0683 -0.34861,0.17243 -0.6416,0.19776 z m 82.338868,-5.46533 c -0.11815,0.003 -0.24011,0.003 -0.36328,-0.001 -3.14716,-0.12827 -5.28815,-1.93885 -6.34131,-3.38965 0.10197,-0.25628 0.13233,-0.54192 0.11719,-0.65479 1.09051,1.34661 2.35402,2.03286 2.9751,2.06544 0.61869,0.009 0.66351,-0.52551 0.79101,-1.09717 0.13261,-0.57549 0.51756,-1.04213 1.45312,-1.00928 1.44205,0.0477 2.03286,1.59174 1.8545,2.28223 -0.12324,0.49766 0.15186,0.50887 0.6167,0.52001 1.87633,0.0629 2.96358,-2.56821 1.64062,-4.05175 -0.24351,-0.30187 0.0479,-0.71784 0.39991,-0.35303 1.76059,1.85313 0.51921,5.59519 -3.14356,5.68945 z m -91.312498,-0.001 c -3.94205,0.15172 -5.32433,-3.77504 -3.50684,-5.68799 0.35205,-0.36483 0.64326,0.0512 0.39991,0.35303 -1.3229,1.48351 -0.23592,4.11464 1.64062,4.05175 0.46458,-0.0112 0.74046,-0.0225 0.6167,-0.52002 -0.17836,-0.69058 0.41234,-2.23463 1.85449,-2.28222 0.93582,-0.033 1.32075,0.43367 1.45313,1.00928 0.12782,0.5716 0.17089,1.10628 0.79248,1.09716 0.61875,-0.0325 1.8826,-0.7189 2.9751,-2.06543 -0.0174,0.11281 0.0141,0.39854 0.11572,0.65479 -1.05308,1.45071 -3.19464,3.26133 -6.34131,3.38965 z m 36.5918,-7.29493 c 0.43329,-0.0929 0.8702,-0.0774 1.40625,-0.0513 0.10336,-0.0589 0.20526,-0.12066 0.30761,-0.18164 -0.68576,0.0264 -1.48951,0.0781 -1.71386,0.2329 z m 17.764163,-0.26505 c -0.28941,-0.20118 -1.60426,-0.23416 -2.19434,-0.24902 0.11749,0.075 0.2385,0.1433 0.35742,0.21533 0.78207,-0.03 1.30093,-0.0834 1.83692,0.0337 z m -14.853523,-0.74561 c 0.0135,-0.01 0.0275,-0.0181 0.041,-0.0278 -0.0418,-0.002 -0.22533,0.009 -0.22119,0.009 0,0 0.1524,0.012 0.18017,0.019 z m 0.28711,-0.20214 c 0.0144,-0.0107 0.0281,-0.0229 0.0425,-0.0337 -0.63476,0.009 -0.99792,-0.14101 -1.51172,-0.19922 0.21735,0.14433 0.85678,0.20609 1.46924,0.23291 z m 11.450683,-0.009 c 0.23999,-0.0283 0.38672,-0.0733 0.38672,-0.0733 0.0123,0.003 -0.25379,0.0184 -0.57129,0.007 0.0263,0.02 0.0512,0.0432 0.0776,0.063 0.0294,-0.003 0.0798,0.006 0.10693,0.003 z m -0.39697,-0.23731 c 0.69186,-0.0137 1.53095,-0.0803 1.78858,-0.24902 -0.60374,0.0682 -1.02121,0.24969 -1.89258,0.16552 0.0347,0.0278 0.0692,0.0561 0.104,0.0835 z m -10.666993,-0.0644 c 0.029,-0.0231 0.0575,-0.047 0.0864,-0.0703 -0.36024,-0.13059 -0.83789,-0.30468 -0.83789,-0.30468 -0.0246,0.005 0.31581,0.19689 0.75147,0.375 z m 10.369633,-0.17578 c 0.56327,-0.19289 1.00745,-0.45668 0.97851,-0.46436 0,0 -0.59546,0.21629 -1.07226,0.38965 0.0308,0.0258 0.0629,0.0492 0.0937,0.0747 z m -3.626953,-5.71436 c 3.375293,-6.25863 7.044433,-7.50439 7.044433,-7.50439 -3.31806,-0.0366 -7.448733,7.07519 -7.448733,7.07519 0,0 3.249313,-14.14993 14.620603,-6.68555 -3.88857,-1.68101 -5.36914,0.64237 -7.45898,1.60254 -4.401383,2.02138 -6.757323,5.51221 -6.757323,5.51221 z m -3.26514,-0.20361 c 0,0 -2.36161,-3.49144 -6.76904,-5.50635 -2.08769,-0.9554 -3.57292,-3.28367 -7.45899,-1.59375 11.36402,-7.47545 14.63233,6.67236 14.63233,6.67236 0,0 -4.14227,-7.1094 -7.46045,-7.0708 0,0 3.67223,1.24695 7.05615,7.49854 z m 4.52343,-5.74512 c 3.368093,-6.16786 1.527873,-6.75942 0.13331,-0.48926 -0.52975,2.38135 -0.27539,-5.54004 -0.27539,-5.54004 0,0 1.844983,-2.9069 3.974123,-3.40283 1.27556,1.63088 0.99117,4.53919 0.4248,6.0293 -1.51439,-0.23434 -3.225293,1.92034 -3.930173,2.9165 -0.20447,0.29344 -0.32667,0.48633 -0.32667,0.48633 z m -5.70263,-0.42041 c -0.66424,-0.95767 -2.41998,-3.23463 -3.97559,-3 -0.56363,-1.48976 -0.84105,-4.40092 0.43946,-6.0293 2.1243,0.50251 3.96387,3.41895 3.96387,3.41895 0,0 -0.79611,3.0895 -0.3003,5.46387 -0.84386,-2.58793 -2.17884,-5.35766 -2.11963,-5.17823 0,0 0.74353,3.2276 1.99219,5.32471 z" />
  </g>
</svg>
