<?xml version="1.0" encoding="UTF-8" standalone="no"?>
<!-- Created with Inkscape (http://www.inkscape.org/) -->

<svg
   width="949.26819"
   height="1010.3294"
   viewBox="0 0 251.16053 267.31631"
   version="1.1"
   id="svg1"
   xml:space="preserve"
   xmlns="http://www.w3.org/2000/svg"
   xmlns:svg="http://www.w3.org/2000/svg"><defs
     id="defs1" /><g
     id="layer1"
     transform="translate(-158.81104,-383.90744)"><path
       id="path1-1-5"
       style="fill:#ffffff;fill-opacity:1;stroke:none;stroke-width:0.735747;stroke-opacity:1"
       d="m 158.81104,383.90744 v 10.57061 c 14.88059,-3.98723 27.26866,1.93246 27.26866,16.43652 v 106.41329 0.47546 106.41183 c 0,14.50404 -12.38807,20.42516 -27.26866,16.43799 v 10.57062 h 156.60651 c 67.00358,0 92.39103,-24.53114 94.43438,-52.35882 3.39838,-46.2803 -66.74114,-51.89313 -64.22991,-11.26477 1.78278,28.84333 44.86075,25.22038 37.115,-1.33494 7.80241,14.81017 -5.21035,58.08668 -74.01306,58.08668 H 262.51701 V 520.1516 c 32.64225,0 61.93786,27.57968 61.93786,53.4868 h 6.57579 v -55.83489 -0.47545 -55.83498 h -6.57579 c 0,25.90715 -29.29561,53.48684 -61.93786,53.48684 V 390.7792 h 46.20695 c 68.80271,0 81.81547,43.2766 74.01306,58.08672 7.74575,-26.55533 -35.33222,-30.17824 -37.115,-1.33497 -2.51123,40.62838 67.62829,35.01559 64.22991,-11.26471 -2.04335,-27.82776 -27.4308,-52.3588 -94.43438,-52.3588 z" /></g></svg>
